<?xml version="1.0" encoding="utf-8"?>
<!-- Generator: Adobe Illustrator 23.0.4, SVG Export Plug-In . SVG Version: 6.00 Build 0)  -->
<svg version="1.1" xmlns="http://www.w3.org/2000/svg" xmlns:xlink="http://www.w3.org/1999/xlink" x="0px" y="0px"
	 viewBox="0 0 612 792" style="enable-background:new 0 0 612 792;" xml:space="preserve">
<style type="text/css">
	.st0{fill:none;stroke:#00FFFF;stroke-width:0.7087;stroke-linecap:round;stroke-linejoin:round;stroke-miterlimit:10;}
	.st1{fill:none;stroke:#00FF00;stroke-width:0.7087;stroke-linecap:round;stroke-linejoin:round;stroke-miterlimit:10;}
	.st2{fill:none;stroke:#000000;stroke-miterlimit:0;}
	.st3{fill:none;stroke:#000000;stroke-width:0.1;}
	.st4{fill:none;stroke:#000000;stroke-miterlimit:10;}
</style>
<g id="CZECH_x5F_Quantum_x5F_Tokens_x5F_wDL">
	<g id="LWPOLYLINE_360_">
		<polygon class="st0" points="462.04,410.49 469.81,412.57 475.49,418.25 477.57,426.02 475.49,433.78 469.81,439.47 
			462.04,441.55 454.28,439.47 448.59,433.78 446.51,426.02 448.59,418.25 454.28,412.57 		"/>
	</g>
	<g id="LWPOLYLINE_361_">
		<polygon class="st1" points="462.04,405.49 472.31,408.24 479.82,415.75 482.57,426.02 479.82,436.28 472.31,443.8 462.04,446.55 
			451.78,443.8 444.26,436.28 441.51,426.02 444.26,415.75 451.78,408.24 		"/>
	</g>
	<g id="LWPOLYLINE_362_">
		<polygon class="st0" points="417.28,410.49 425.04,412.57 430.73,418.25 432.81,426.02 430.73,433.78 425.04,439.47 
			417.28,441.55 409.52,439.47 403.83,433.78 401.75,426.02 403.83,418.25 409.52,412.57 		"/>
	</g>
	<g id="LWPOLYLINE_363_">
		<polygon class="st1" points="417.28,405.49 427.54,408.24 435.06,415.75 437.81,426.02 435.06,436.28 427.54,443.8 417.28,446.55 
			407.02,443.8 399.5,436.28 396.75,426.02 399.5,415.75 407.02,408.24 		"/>
	</g>
	<g id="LWPOLYLINE_364_">
		<polygon class="st0" points="372.87,410.49 380.64,412.57 386.32,418.25 388.4,426.02 386.32,433.78 380.64,439.47 372.87,441.55 
			365.11,439.47 359.42,433.78 357.34,426.02 359.42,418.25 365.11,412.57 		"/>
	</g>
	<g id="LWPOLYLINE_365_">
		<polygon class="st1" points="372.87,405.49 383.14,408.24 390.65,415.75 393.4,426.02 390.65,436.28 383.14,443.8 372.87,446.55 
			362.61,443.8 355.09,436.28 352.34,426.02 355.09,415.75 362.61,408.24 		"/>
	</g>
	<g id="LWPOLYLINE_366_">
		<polygon class="st0" points="328.46,410.49 336.23,412.57 341.91,418.25 343.99,426.02 341.91,433.78 336.23,439.47 
			328.46,441.55 320.7,439.47 315.01,433.78 312.93,426.02 315.01,418.25 320.7,412.57 		"/>
	</g>
	<g id="LWPOLYLINE_367_">
		<polygon class="st1" points="328.46,405.49 338.73,408.24 346.24,415.75 348.99,426.02 346.24,436.28 338.73,443.8 328.46,446.55 
			318.2,443.8 310.68,436.28 307.93,426.02 310.68,415.75 318.2,408.24 		"/>
	</g>
	<g id="LWPOLYLINE_368_">
		<polygon class="st0" points="284.05,410.49 291.82,412.57 297.5,418.25 299.58,426.02 297.5,433.78 291.82,439.47 284.05,441.55 
			276.29,439.47 270.61,433.78 268.53,426.02 270.61,418.25 276.29,412.57 		"/>
	</g>
	<g id="LWPOLYLINE_369_">
		<polygon class="st1" points="284.05,405.49 294.32,408.24 301.83,415.75 304.58,426.02 301.83,436.28 294.32,443.8 284.05,446.55 
			273.79,443.8 266.28,436.28 263.53,426.02 266.28,415.75 273.79,408.24 		"/>
	</g>
	<g id="LWPOLYLINE_370_">
		<polygon class="st0" points="239.65,410.49 247.41,412.57 253.09,418.25 255.18,426.02 253.09,433.78 247.41,439.47 
			239.65,441.55 231.88,439.47 226.2,433.78 224.12,426.02 226.2,418.25 231.88,412.57 		"/>
	</g>
	<g id="LWPOLYLINE_371_">
		<polygon class="st1" points="239.65,405.49 249.91,408.24 257.42,415.75 260.18,426.02 257.42,436.28 249.91,443.8 239.65,446.55 
			229.38,443.8 221.87,436.28 219.12,426.02 221.87,415.75 229.38,408.24 		"/>
	</g>
	<g id="LWPOLYLINE_374_">
		<polygon class="st0" points="150.83,410.49 158.59,412.57 164.28,418.25 166.36,426.02 164.28,433.78 158.59,439.47 
			150.83,441.55 143.07,439.47 137.38,433.78 135.3,426.02 137.38,418.25 143.07,412.57 		"/>
	</g>
	<g id="LWPOLYLINE_375_">
		<polygon class="st1" points="150.83,405.49 161.09,408.24 168.61,415.75 171.36,426.02 168.61,436.28 161.09,443.8 150.83,446.55 
			140.57,443.8 133.05,436.28 130.3,426.02 133.05,415.75 140.57,408.24 		"/>
	</g>
	<g id="LWPOLYLINE_376_">
		<polygon class="st0" points="328.46,363.04 336.23,365.12 341.91,370.81 343.99,378.57 341.91,386.34 336.23,392.02 328.46,394.1 
			320.7,392.02 315.02,386.34 312.93,378.57 315.02,370.81 320.7,365.12 		"/>
	</g>
	<g id="LWPOLYLINE_377_">
		<polygon class="st1" points="328.46,358.04 338.73,360.79 346.24,368.31 348.99,378.57 346.24,388.83 338.73,396.35 328.46,399.1 
			318.2,396.35 310.69,388.83 307.93,378.57 310.69,368.31 318.2,360.79 		"/>
	</g>
	<g id="LWPOLYLINE_397_">
		<polygon class="st0" points="284.06,363.04 291.82,365.12 297.5,370.81 299.58,378.57 297.5,386.33 291.82,392.02 284.06,394.1 
			276.29,392.02 270.61,386.33 268.53,378.57 270.61,370.81 276.29,365.12 		"/>
	</g>
	<g id="LWPOLYLINE_398_">
		<polygon class="st1" points="284.06,358.04 294.32,360.79 301.83,368.31 304.58,378.57 301.83,388.83 294.32,396.35 284.06,399.1 
			273.79,396.35 266.28,388.83 263.53,378.57 266.28,368.31 273.79,360.79 		"/>
	</g>
	<g id="LWPOLYLINE_418_">
		<polygon class="st0" points="239.65,363.04 247.41,365.12 253.09,370.81 255.18,378.57 253.09,386.34 247.41,392.02 239.65,394.1 
			231.88,392.02 226.2,386.34 224.12,378.57 226.2,370.81 231.88,365.12 		"/>
	</g>
	<g id="LWPOLYLINE_419_">
		<polygon class="st1" points="239.65,358.04 249.91,360.79 257.42,368.31 260.18,378.57 257.42,388.83 249.91,396.35 239.65,399.1 
			229.38,396.35 221.87,388.83 219.12,378.57 221.87,368.31 229.38,360.79 		"/>
	</g>
	<g id="LWPOLYLINE_439_">
		<polygon class="st0" points="195.24,363.04 203,365.12 208.69,370.81 210.77,378.57 208.69,386.34 203,392.02 195.24,394.1 
			187.47,392.02 181.79,386.34 179.71,378.57 181.79,370.81 187.47,365.12 		"/>
	</g>
	<g id="LWPOLYLINE_440_">
		<polygon class="st1" points="195.24,358.04 205.5,360.79 213.02,368.31 215.77,378.57 213.02,388.83 205.5,396.35 195.24,399.1 
			184.97,396.35 177.46,388.83 174.71,378.57 177.46,368.31 184.97,360.79 		"/>
	</g>
	<g id="LWPOLYLINE_460_">
		<polygon class="st0" points="150.83,363.04 158.59,365.12 164.28,370.81 166.36,378.57 164.28,386.34 158.59,392.02 150.83,394.1 
			143.07,392.02 137.38,386.34 135.3,378.57 137.38,370.81 143.07,365.12 		"/>
	</g>
	<g id="LWPOLYLINE_461_">
		<polygon class="st1" points="150.83,358.04 161.09,360.79 168.61,368.31 171.36,378.57 168.61,388.83 161.09,396.35 150.83,399.1 
			140.57,396.35 133.05,388.83 130.3,378.57 133.05,368.31 140.57,360.79 		"/>
	</g>
	<g id="LWPOLYLINE_481_">
		<polygon class="st0" points="372.87,363.04 380.64,365.12 386.32,370.81 388.4,378.57 386.32,386.34 380.64,392.02 372.87,394.1 
			365.11,392.02 359.42,386.34 357.34,378.57 359.42,370.81 365.11,365.12 		"/>
	</g>
	<g id="LWPOLYLINE_482_">
		<polygon class="st1" points="372.87,358.04 383.14,360.79 390.65,368.31 393.4,378.57 390.65,388.83 383.14,396.35 372.87,399.1 
			362.61,396.35 355.09,388.83 352.34,378.57 355.09,368.31 362.61,360.79 		"/>
	</g>
	<g id="LWPOLYLINE_502_">
		<polygon class="st0" points="417.41,363.04 425.17,365.12 430.86,370.81 432.94,378.57 430.86,386.34 425.17,392.02 417.41,394.1 
			409.64,392.02 403.96,386.34 401.88,378.57 403.96,370.81 409.64,365.12 		"/>
	</g>
	<g id="LWPOLYLINE_503_">
		<polygon class="st1" points="417.41,358.04 427.67,360.79 435.19,368.31 437.94,378.57 435.19,388.83 427.67,396.35 417.41,399.1 
			407.14,396.35 399.63,388.83 396.88,378.57 399.63,368.31 407.14,360.79 		"/>
	</g>
	<g id="LWPOLYLINE_523_">
		<polygon class="st0" points="462.17,363.04 469.93,365.12 475.62,370.81 477.7,378.57 475.62,386.34 469.93,392.02 462.17,394.1 
			454.41,392.02 448.72,386.34 446.64,378.57 448.72,370.81 454.41,365.12 		"/>
	</g>
	<g id="LWPOLYLINE_524_">
		<polygon class="st1" points="462.17,358.04 472.43,360.79 479.95,368.31 482.7,378.57 479.95,388.83 472.43,396.35 462.17,399.1 
			451.91,396.35 444.39,388.83 441.64,378.57 444.39,368.31 451.91,360.79 		"/>
	</g>
	<g>
		<path class="st2" d="M145.37,424.71l-0.27,0.33v0.58h-0.46v-2.1h0.46v1h0.02l0.3-0.41l0.47-0.59h0.52l-0.71,0.86l0.77,1.24h-0.54
			L145.37,424.71z"/>
		<path class="st2" d="M146.76,424.84c0-0.51,0.28-0.82,0.74-0.82s0.74,0.32,0.74,0.82c0,0.51-0.28,0.83-0.74,0.83
			S146.76,425.34,146.76,424.84z M147.77,425v-0.32c0-0.2-0.1-0.31-0.28-0.31s-0.28,0.11-0.28,0.31V425c0,0.2,0.1,0.31,0.28,0.31
			S147.77,425.2,147.77,425z"/>
		<path class="st2" d="M148.77,425.63v-1.58h0.44v0.34h0.02c0.04-0.17,0.16-0.34,0.4-0.34h0.08v0.42h-0.11
			c-0.26,0-0.38,0.06-0.38,0.24v0.92H148.77z"/>
		<path class="st2" d="M150.1,424.84c0-0.5,0.26-0.82,0.74-0.82c0.52,0,0.73,0.38,0.73,0.81v0.13h-1.01v0.02
			c0,0.21,0.11,0.34,0.35,0.34c0.19,0,0.29-0.09,0.39-0.19l0.22,0.28c-0.14,0.16-0.37,0.26-0.66,0.26
			C150.37,425.66,150.1,425.34,150.1,424.84z M150.56,424.67v0.02h0.55v-0.03c0-0.19-0.09-0.32-0.26-0.32
			C150.67,424.34,150.56,424.47,150.56,424.67z"/>
		<path class="st2" d="M152.11,423.4h0.44v1.31h0.02l0.2-0.29l0.32-0.38h0.49l-0.53,0.6l0.59,0.97h-0.53l-0.35-0.67l-0.2,0.22v0.45
			h-0.44V423.4z"/>
		<path class="st2" d="M153.88,424.84c0-0.5,0.26-0.82,0.74-0.82c0.32,0,0.54,0.15,0.63,0.41l-0.36,0.16
			c-0.03-0.12-0.11-0.22-0.27-0.22c-0.18,0-0.27,0.13-0.27,0.33v0.29c0,0.2,0.09,0.33,0.27,0.33c0.18,0,0.25-0.11,0.29-0.24
			l0.35,0.15c-0.1,0.3-0.33,0.44-0.64,0.44C154.14,425.66,153.88,425.34,153.88,424.84z"/>
		<path class="st2" d="M155.64,424.84c0-0.5,0.26-0.82,0.74-0.82c0.52,0,0.73,0.38,0.73,0.81v0.13h-1.01v0.02
			c0,0.21,0.11,0.34,0.35,0.34c0.19,0,0.29-0.09,0.39-0.19l0.22,0.28c-0.14,0.16-0.37,0.26-0.66,0.26
			C155.92,425.66,155.64,425.34,155.64,424.84z M156.1,424.67v0.02h0.55v-0.03c0-0.19-0.09-0.32-0.26-0.32
			C156.21,424.34,156.1,424.47,156.1,424.67z"/>
		<path class="st2" d="M138.62,427h0.44v1.31h0.02l0.2-0.29l0.32-0.38h0.49l-0.53,0.6l0.59,0.97h-0.53l-0.35-0.67l-0.2,0.22v0.45
			h-0.44V427z"/>
		<path class="st2" d="M140.88,429.23l-0.52-1.58h0.44l0.2,0.64l0.15,0.57h0.02l0.15-0.57l0.19-0.64h0.42l-0.52,1.58H140.88z"/>
		<path class="st2" d="M143.52,429.23c-0.16,0-0.27-0.11-0.3-0.28h-0.02c-0.05,0.2-0.22,0.31-0.46,0.31c-0.32,0-0.49-0.19-0.49-0.46
			c0-0.33,0.26-0.49,0.68-0.49h0.25v-0.1c0-0.15-0.07-0.25-0.26-0.25c-0.18,0-0.27,0.09-0.34,0.19l-0.26-0.23
			c0.13-0.19,0.31-0.3,0.64-0.3c0.44,0,0.67,0.2,0.67,0.58v0.69h0.15v0.35H143.52z M143.17,428.75v-0.19h-0.22
			c-0.17,0-0.26,0.06-0.26,0.18v0.05c0,0.11,0.07,0.17,0.21,0.17C143.05,428.95,143.17,428.89,143.17,428.75z"/>
		<path class="st2" d="M144.28,429.23v-1.58h0.44v0.27h0.02c0.06-0.17,0.19-0.3,0.44-0.3c0.32,0,0.49,0.23,0.49,0.62v0.99h-0.44
			v-0.95c0-0.2-0.06-0.3-0.22-0.3c-0.14,0-0.29,0.08-0.29,0.23v1.02H144.28z"/>
		<path class="st2" d="M146.85,429.23c-0.31,0-0.47-0.16-0.47-0.46v-0.77h-0.22v-0.35h0.11c0.12,0,0.16-0.06,0.16-0.17v-0.26h0.4
			v0.43h0.31v0.35h-0.31v0.89h0.29v0.35H146.85z"/>
		<path class="st2" d="M147.56,428.44c0-0.51,0.28-0.82,0.74-0.82s0.74,0.32,0.74,0.82c0,0.51-0.28,0.83-0.74,0.83
			S147.56,428.94,147.56,428.44z M148.58,428.6v-0.32c0-0.2-0.1-0.31-0.28-0.31s-0.28,0.11-0.28,0.31v0.32c0,0.2,0.1,0.31,0.28,0.31
			S148.58,428.8,148.58,428.6z"/>
		<path class="st2" d="M149.89,429.23l-0.52-1.58h0.44l0.2,0.64l0.15,0.57h0.02l0.15-0.57l0.19-0.64h0.42l-0.52,1.58H149.89z"/>
		<path class="st2" d="M151.27,428.44c0-0.5,0.26-0.82,0.74-0.82c0.52,0,0.73,0.38,0.73,0.81v0.13h-1.01v0.02
			c0,0.21,0.11,0.34,0.35,0.34c0.19,0,0.29-0.09,0.39-0.19l0.22,0.28c-0.14,0.16-0.37,0.26-0.66,0.26
			C151.54,429.26,151.27,428.94,151.27,428.44z M151.73,428.26v0.02h0.55v-0.03c0-0.19-0.09-0.32-0.26-0.32
			C151.84,427.94,151.73,428.07,151.73,428.26z M152.07,427.49l-0.26-0.13l0.3-0.58l0.37,0.18L152.07,427.49z"/>
		<path class="st2" d="M154.11,428.44c0-0.5,0.26-0.82,0.74-0.82c0.32,0,0.54,0.15,0.63,0.41l-0.36,0.16
			c-0.03-0.12-0.11-0.22-0.27-0.22c-0.18,0-0.27,0.13-0.27,0.33v0.29c0,0.2,0.09,0.33,0.27,0.33c0.18,0,0.25-0.11,0.29-0.24
			l0.35,0.15c-0.1,0.3-0.33,0.44-0.64,0.44C154.37,429.26,154.11,428.94,154.11,428.44z"/>
		<path class="st2" d="M155.99,427h0.44v0.91h0.02c0.06-0.17,0.19-0.3,0.44-0.3c0.32,0,0.49,0.23,0.49,0.62v0.99h-0.44v-0.95
			c0-0.2-0.06-0.3-0.22-0.3c-0.14,0-0.29,0.08-0.29,0.23v1.02h-0.44V427z"/>
		<path class="st2" d="M158.94,427.65h0.41l-0.61,1.82c-0.08,0.24-0.21,0.36-0.48,0.36h-0.28v-0.35h0.3l0.05-0.17l-0.55-1.66h0.44
			l0.23,0.74l0.11,0.46h0.02l0.12-0.46L158.94,427.65z"/>
		<path class="st2" d="M159.8,427h0.44v0.91h0.02c0.04-0.17,0.22-0.3,0.42-0.3c0.4,0,0.61,0.29,0.61,0.82
			c0,0.54-0.21,0.83-0.61,0.83c-0.2,0-0.38-0.13-0.42-0.3h-0.02v0.26h-0.44V427z M160.83,428.57v-0.27c0-0.2-0.12-0.33-0.29-0.33
			s-0.29,0.09-0.29,0.23v0.47c0,0.14,0.12,0.23,0.29,0.23S160.83,428.77,160.83,428.57z"/>
		<path class="st2" d="M162.79,427.65h0.41l-0.61,1.82c-0.08,0.24-0.21,0.36-0.48,0.36h-0.28v-0.35h0.3l0.05-0.17l-0.55-1.66h0.44
			l0.23,0.74l0.11,0.46h0.02l0.12-0.46L162.79,427.65z"/>
	</g>
	<g>
		<circle class="st3" cx="150.56" cy="378.6" r="1.74"/>
		<path class="st3" d="M143.13,375.81c0.17,0.58,0.52,1.22,1.04,1.9c0.22,0.29,0.47,0.58,0.74,0.87c-0.27,0.29-0.52,0.58-0.74,0.87
			c-0.52,0.68-0.87,1.32-1.04,1.9c-0.14,0.47-0.22,1.15,0.14,1.74c0.49,0.8,1.5,0.97,2.26,0.97c0.64,0,1.37-0.11,2.15-0.32
			c0.08,0.25,0.16,0.5,0.25,0.73c0.3,0.8,0.66,1.43,1.07,1.88c0.47,0.52,1.01,0.79,1.56,0.79h0c0.7,0,1.23-0.43,1.55-0.8
			c0.4-0.45,0.76-1.08,1.06-1.88c0.09-0.23,0.17-0.47,0.24-0.72c0.78,0.21,1.5,0.32,2.14,0.32h0c0.76,0,1.77-0.17,2.26-0.97
			c0.37-0.59,0.28-1.28,0.14-1.74c-0.17-0.58-0.52-1.22-1.04-1.9c-0.22-0.29-0.47-0.58-0.74-0.87c0.27-0.29,0.52-0.58,0.74-0.87
			c0.52-0.68,0.87-1.32,1.04-1.9c0.14-0.47,0.22-1.15-0.14-1.74c-0.49-0.8-1.5-0.97-2.26-0.97c-0.64,0-1.37,0.11-2.15,0.32
			c-0.08-0.26-0.16-0.5-0.25-0.74c-0.3-0.8-0.66-1.43-1.07-1.88c-0.47-0.52-1.01-0.8-1.56-0.8h0c-0.7,0-1.23,0.44-1.55,0.8
			c-0.4,0.45-0.76,1.09-1.06,1.89c-0.09,0.23-0.17,0.47-0.24,0.72c-0.78-0.21-1.5-0.32-2.14-0.32c-0.76,0-1.77,0.17-2.26,0.97
			C142.91,374.66,143,375.35,143.13,375.81z"/>
		<path class="st3" d="M152.49,373.73c-0.07-0.23-0.15-0.46-0.23-0.68c-0.49-1.28-1.13-2.05-1.72-2.05c-0.59,0-1.23,0.77-1.71,2.06
			c-0.08,0.21-0.15,0.43-0.22,0.66c0.63,0.22,1.29,0.49,1.95,0.82C151.21,374.22,151.86,373.95,152.49,373.73z"/>
		<path class="st3" d="M144.94,377.14c0.2,0.26,0.42,0.51,0.66,0.77c0.45-0.42,0.95-0.84,1.48-1.24c0.07-0.8,0.19-1.57,0.35-2.29
			c-0.71-0.19-1.35-0.29-1.89-0.29c-0.42,0-1.16,0.07-1.44,0.51C143.79,375.1,144.11,376.04,144.94,377.14z"/>
		<path class="st3" d="M153.67,374.38c0.16,0.71,0.28,1.48,0.35,2.28c0.54,0.4,1.04,0.82,1.49,1.25c0.24-0.26,0.46-0.52,0.66-0.77
			c0.84-1.09,1.15-2.04,0.84-2.54c-0.27-0.44-1.02-0.51-1.44-0.51C155.03,374.09,154.38,374.19,153.67,374.38z"/>
		<path class="st3" d="M148.39,374.68c-0.01,0-0.02-0.01-0.03-0.01c-0.09,0.4-0.16,0.82-0.22,1.25c0.18-0.12,0.36-0.23,0.54-0.34
			c0.26-0.16,0.52-0.32,0.79-0.46C149.1,374.95,148.74,374.8,148.39,374.68z"/>
		<path class="st3" d="M152.95,375.91c-0.06-0.43-0.13-0.84-0.22-1.24c0,0-0.01,0-0.01,0c-0.35,0.13-0.72,0.27-1.08,0.43
			c0.26,0.15,0.52,0.3,0.79,0.46C152.61,375.68,152.78,375.8,152.95,375.91z"/>
		<path class="st3" d="M147.98,378.6c0,0.48,0.02,0.95,0.05,1.41c0.37,0.27,0.77,0.53,1.17,0.78c0.45,0.28,0.9,0.54,1.36,0.77
			c0.46-0.24,0.91-0.49,1.36-0.77c0.41-0.25,0.8-0.52,1.18-0.79c0.03-0.46,0.05-0.94,0.04-1.42c0-0.48-0.02-0.95-0.05-1.41
			c-0.37-0.27-0.77-0.53-1.17-0.78c-0.45-0.28-0.9-0.54-1.36-0.77c-0.46,0.24-0.91,0.49-1.36,0.77c-0.41,0.25-0.8,0.52-1.18,0.79
			C147.99,377.65,147.97,378.12,147.98,378.6z"/>
		<path class="st3" d="M154.82,378.6c-0.23-0.21-0.47-0.42-0.72-0.63c0.01,0.21,0.01,0.42,0.01,0.62c0,0.21,0,0.43-0.01,0.64
			C154.35,379.02,154.59,378.81,154.82,378.6z"/>
		<path class="st3" d="M147.01,379.23c-0.01-0.21-0.01-0.42-0.01-0.63c0-0.21,0-0.43,0.01-0.64c-0.25,0.21-0.49,0.42-0.72,0.63
			C146.52,378.81,146.76,379.02,147.01,379.23z"/>
		<path class="st3" d="M153.68,382.82c0.71,0.19,1.35,0.29,1.89,0.29h0c0.42,0,1.16-0.07,1.44-0.51c0.31-0.5-0.01-1.45-0.84-2.54
			c-0.2-0.26-0.42-0.51-0.66-0.77c-0.45,0.42-0.95,0.84-1.48,1.24C153.96,381.34,153.84,382.11,153.68,382.82z"/>
		<path class="st3" d="M144.94,380.05c-0.84,1.09-1.15,2.04-0.84,2.54c0.27,0.44,1.02,0.51,1.44,0.51c0.55,0,1.19-0.1,1.91-0.29
			c-0.16-0.71-0.28-1.48-0.35-2.28c-0.54-0.4-1.04-0.82-1.49-1.25C145.36,379.54,145.14,379.8,144.94,380.05z"/>
		<path class="st3" d="M152.72,382.51c0.01,0,0.02,0.01,0.02,0.01c0.09-0.4,0.16-0.82,0.22-1.25c-0.18,0.12-0.36,0.23-0.54,0.34
			c-0.26,0.16-0.52,0.32-0.79,0.47C152.01,382.24,152.37,382.39,152.72,382.51z"/>
		<path class="st3" d="M148.16,381.28c0.06,0.43,0.13,0.84,0.22,1.23c0,0,0.01,0,0.01,0c0.35-0.13,0.71-0.27,1.08-0.43
			c-0.26-0.15-0.52-0.3-0.78-0.46C148.51,381.51,148.33,381.4,148.16,381.28z"/>
		<path class="st3" d="M148.62,383.47c0.07,0.23,0.15,0.46,0.23,0.67c0.49,1.28,1.13,2.05,1.72,2.05h0c0.59,0,1.22-0.77,1.71-2.05
			c0.08-0.21,0.15-0.43,0.22-0.66c-0.63-0.22-1.29-0.49-1.95-0.82C149.9,382.98,149.25,383.25,148.62,383.47z"/>
		<g id="g9991">
		</g>
	</g>
	<g>
		<circle class="st3" cx="194.95" cy="378.62" r="1.74"/>
		<path class="st3" d="M187.53,375.83c0.17,0.58,0.52,1.22,1.04,1.9c0.22,0.29,0.47,0.58,0.74,0.87c-0.27,0.29-0.52,0.58-0.74,0.87
			c-0.52,0.68-0.87,1.32-1.04,1.9c-0.14,0.47-0.22,1.15,0.14,1.74c0.49,0.8,1.5,0.97,2.26,0.97c0.64,0,1.37-0.11,2.15-0.32
			c0.08,0.25,0.16,0.5,0.25,0.73c0.3,0.8,0.66,1.43,1.07,1.88c0.47,0.52,1.01,0.79,1.56,0.79h0c0.7,0,1.23-0.43,1.55-0.8
			c0.4-0.45,0.76-1.08,1.06-1.88c0.09-0.23,0.17-0.47,0.24-0.72c0.78,0.21,1.5,0.32,2.14,0.32h0c0.76,0,1.77-0.17,2.26-0.97
			c0.37-0.59,0.28-1.28,0.14-1.74c-0.17-0.58-0.52-1.22-1.04-1.9c-0.22-0.29-0.47-0.58-0.74-0.87c0.27-0.29,0.52-0.58,0.74-0.87
			c0.52-0.68,0.87-1.32,1.04-1.9c0.14-0.47,0.22-1.15-0.14-1.74c-0.49-0.8-1.5-0.97-2.26-0.97c-0.64,0-1.37,0.11-2.15,0.32
			c-0.08-0.26-0.16-0.5-0.25-0.74c-0.3-0.8-0.66-1.43-1.07-1.88c-0.47-0.52-1.01-0.8-1.56-0.8h0c-0.7,0-1.23,0.44-1.55,0.8
			c-0.4,0.45-0.76,1.09-1.06,1.89c-0.09,0.23-0.17,0.47-0.24,0.72c-0.78-0.21-1.5-0.32-2.14-0.32c-0.76,0-1.77,0.17-2.26,0.97
			C187.3,374.68,187.39,375.37,187.53,375.83z"/>
		<path class="st3" d="M196.88,373.75c-0.07-0.23-0.15-0.46-0.23-0.68c-0.49-1.28-1.13-2.05-1.72-2.05c-0.59,0-1.23,0.77-1.71,2.06
			c-0.08,0.21-0.15,0.43-0.22,0.66c0.63,0.22,1.29,0.49,1.95,0.82C195.61,374.24,196.26,373.97,196.88,373.75z"/>
		<path class="st3" d="M189.34,377.16c0.2,0.26,0.42,0.51,0.66,0.77c0.45-0.42,0.95-0.84,1.48-1.24c0.07-0.8,0.19-1.57,0.35-2.29
			c-0.71-0.19-1.35-0.29-1.89-0.29c-0.42,0-1.16,0.07-1.44,0.51C188.19,375.12,188.5,376.06,189.34,377.16z"/>
		<path class="st3" d="M198.06,374.4c0.16,0.71,0.28,1.48,0.35,2.28c0.54,0.4,1.04,0.82,1.49,1.25c0.24-0.26,0.46-0.52,0.66-0.77
			c0.84-1.09,1.15-2.04,0.84-2.54c-0.27-0.44-1.02-0.51-1.44-0.51C199.42,374.11,198.77,374.21,198.06,374.4z"/>
		<path class="st3" d="M192.78,374.7c-0.01,0-0.02-0.01-0.03-0.01c-0.09,0.4-0.16,0.82-0.22,1.25c0.18-0.12,0.36-0.23,0.54-0.34
			c0.26-0.16,0.52-0.32,0.79-0.46C193.5,374.97,193.14,374.83,192.78,374.7z"/>
		<path class="st3" d="M197.35,375.93c-0.06-0.43-0.13-0.84-0.22-1.24c0,0-0.01,0-0.01,0c-0.35,0.13-0.72,0.27-1.08,0.43
			c0.26,0.15,0.52,0.3,0.79,0.46C197,375.71,197.17,375.82,197.35,375.93z"/>
		<path class="st3" d="M192.37,378.62c0,0.48,0.02,0.95,0.05,1.41c0.37,0.27,0.77,0.53,1.17,0.78c0.45,0.28,0.9,0.54,1.36,0.77
			c0.46-0.24,0.91-0.49,1.36-0.77c0.41-0.25,0.8-0.52,1.18-0.79c0.03-0.46,0.05-0.94,0.04-1.42c0-0.48-0.02-0.95-0.05-1.41
			c-0.37-0.27-0.77-0.53-1.17-0.78c-0.45-0.28-0.9-0.54-1.36-0.77c-0.46,0.24-0.91,0.49-1.36,0.77c-0.41,0.25-0.8,0.52-1.18,0.79
			C192.38,377.67,192.37,378.14,192.37,378.62z"/>
		<path class="st3" d="M199.21,378.62c-0.23-0.21-0.47-0.42-0.72-0.63c0.01,0.21,0.01,0.42,0.01,0.62c0,0.21,0,0.43-0.01,0.64
			C198.75,379.04,198.99,378.83,199.21,378.62z"/>
		<path class="st3" d="M191.4,379.25c-0.01-0.21-0.01-0.42-0.01-0.63c0-0.21,0-0.43,0.01-0.64c-0.25,0.21-0.49,0.42-0.72,0.63
			C190.91,378.83,191.15,379.04,191.4,379.25z"/>
		<path class="st3" d="M198.07,382.84c0.71,0.19,1.35,0.29,1.89,0.29h0c0.42,0,1.16-0.07,1.44-0.51c0.31-0.5-0.01-1.45-0.84-2.54
			c-0.2-0.26-0.42-0.51-0.66-0.77c-0.45,0.42-0.95,0.84-1.48,1.24C198.35,381.36,198.23,382.13,198.07,382.84z"/>
		<path class="st3" d="M189.34,380.08c-0.84,1.09-1.15,2.04-0.84,2.54c0.27,0.44,1.02,0.51,1.44,0.51c0.55,0,1.19-0.1,1.91-0.29
			c-0.16-0.71-0.28-1.48-0.35-2.28c-0.54-0.4-1.04-0.82-1.49-1.25C189.75,379.56,189.53,379.82,189.34,380.08z"/>
		<path class="st3" d="M197.11,382.53c0.01,0,0.02,0.01,0.02,0.01c0.09-0.4,0.16-0.82,0.22-1.25c-0.18,0.12-0.36,0.23-0.54,0.34
			c-0.26,0.16-0.52,0.32-0.79,0.47C196.4,382.26,196.76,382.41,197.11,382.53z"/>
		<path class="st3" d="M192.55,381.3c0.06,0.43,0.13,0.84,0.22,1.23c0,0,0.01,0,0.01,0c0.35-0.13,0.71-0.27,1.08-0.43
			c-0.26-0.15-0.52-0.3-0.78-0.46C192.9,381.53,192.72,381.42,192.55,381.3z"/>
		<path class="st3" d="M193.02,383.49c0.07,0.23,0.15,0.46,0.23,0.67c0.49,1.28,1.13,2.05,1.72,2.05h0c0.59,0,1.22-0.77,1.71-2.05
			c0.08-0.21,0.15-0.43,0.22-0.66c-0.63-0.22-1.29-0.49-1.95-0.82C194.29,383,193.64,383.27,193.02,383.49z"/>
		<g id="g9991_1_">
		</g>
	</g>
	<g>
		<circle class="st3" cx="239.71" cy="378.64" r="1.74"/>
		<path class="st3" d="M232.29,375.86c0.17,0.58,0.52,1.22,1.04,1.9c0.22,0.29,0.47,0.58,0.74,0.87c-0.27,0.29-0.52,0.58-0.74,0.87
			c-0.52,0.68-0.87,1.32-1.04,1.9c-0.14,0.47-0.22,1.15,0.14,1.74c0.49,0.8,1.5,0.97,2.26,0.97c0.64,0,1.37-0.11,2.15-0.32
			c0.08,0.25,0.16,0.5,0.25,0.73c0.3,0.8,0.66,1.43,1.07,1.88c0.47,0.52,1.01,0.79,1.56,0.79h0c0.7,0,1.23-0.43,1.55-0.8
			c0.4-0.45,0.76-1.08,1.06-1.88c0.09-0.23,0.17-0.47,0.24-0.72c0.78,0.21,1.5,0.32,2.14,0.32h0c0.76,0,1.77-0.17,2.26-0.97
			c0.37-0.59,0.28-1.28,0.14-1.74c-0.17-0.58-0.52-1.22-1.04-1.9c-0.22-0.29-0.47-0.58-0.74-0.87c0.27-0.29,0.52-0.58,0.74-0.87
			c0.52-0.68,0.87-1.32,1.04-1.9c0.14-0.47,0.22-1.15-0.14-1.74c-0.49-0.8-1.5-0.97-2.26-0.97c-0.64,0-1.37,0.11-2.15,0.32
			c-0.08-0.26-0.16-0.5-0.25-0.74c-0.3-0.8-0.66-1.43-1.07-1.88c-0.47-0.52-1.01-0.8-1.56-0.8h0c-0.7,0-1.23,0.44-1.55,0.8
			c-0.4,0.45-0.76,1.09-1.06,1.89c-0.09,0.23-0.17,0.47-0.24,0.72c-0.78-0.21-1.5-0.32-2.14-0.32c-0.76,0-1.77,0.17-2.26,0.97
			C232.07,374.7,232.15,375.39,232.29,375.86z"/>
		<path class="st3" d="M241.65,373.77c-0.07-0.23-0.15-0.46-0.23-0.68c-0.49-1.28-1.13-2.05-1.72-2.05c-0.59,0-1.23,0.77-1.71,2.06
			c-0.08,0.21-0.15,0.43-0.22,0.66c0.63,0.22,1.29,0.49,1.95,0.82C240.37,374.26,241.02,373.99,241.65,373.77z"/>
		<path class="st3" d="M234.1,377.18c0.2,0.26,0.42,0.51,0.66,0.77c0.45-0.42,0.95-0.84,1.48-1.24c0.07-0.8,0.19-1.57,0.35-2.29
			c-0.71-0.19-1.35-0.29-1.89-0.29c-0.42,0-1.16,0.07-1.44,0.51C232.95,375.14,233.27,376.09,234.1,377.18z"/>
		<path class="st3" d="M242.82,374.43c0.16,0.71,0.28,1.48,0.35,2.28c0.54,0.4,1.04,0.82,1.49,1.25c0.24-0.26,0.46-0.52,0.66-0.77
			c0.84-1.09,1.15-2.04,0.84-2.54c-0.27-0.44-1.02-0.51-1.44-0.51C244.18,374.13,243.54,374.23,242.82,374.43z"/>
		<path class="st3" d="M237.55,374.72c-0.01,0-0.02-0.01-0.03-0.01c-0.09,0.4-0.16,0.82-0.22,1.25c0.18-0.12,0.36-0.23,0.54-0.34
			c0.26-0.16,0.52-0.32,0.79-0.46C238.26,374.99,237.9,374.85,237.55,374.72z"/>
		<path class="st3" d="M242.11,375.95c-0.06-0.43-0.13-0.84-0.22-1.24c0,0-0.01,0-0.01,0c-0.35,0.13-0.72,0.27-1.08,0.43
			c0.26,0.15,0.52,0.3,0.79,0.46C241.76,375.73,241.94,375.84,242.11,375.95z"/>
		<path class="st3" d="M237.13,378.64c0,0.48,0.02,0.95,0.05,1.41c0.37,0.27,0.77,0.53,1.17,0.78c0.45,0.28,0.9,0.54,1.36,0.77
			c0.46-0.24,0.91-0.49,1.36-0.77c0.41-0.25,0.8-0.52,1.18-0.79c0.03-0.46,0.05-0.94,0.04-1.42c0-0.48-0.02-0.95-0.05-1.41
			c-0.37-0.27-0.77-0.53-1.17-0.78c-0.45-0.28-0.9-0.54-1.36-0.77c-0.46,0.24-0.91,0.49-1.36,0.77c-0.41,0.25-0.8,0.52-1.18,0.79
			C237.15,377.69,237.13,378.16,237.13,378.64z"/>
		<path class="st3" d="M243.98,378.64c-0.23-0.21-0.47-0.42-0.72-0.63c0.01,0.21,0.01,0.42,0.01,0.62c0,0.21,0,0.43-0.01,0.64
			C243.51,379.06,243.75,378.85,243.98,378.64z"/>
		<path class="st3" d="M236.17,379.27c-0.01-0.21-0.01-0.42-0.01-0.63c0-0.21,0-0.43,0.01-0.64c-0.25,0.21-0.49,0.42-0.72,0.63
			C235.68,378.85,235.92,379.06,236.17,379.27z"/>
		<path class="st3" d="M242.84,382.86c0.71,0.19,1.35,0.29,1.89,0.29h0c0.42,0,1.16-0.07,1.44-0.51c0.31-0.5-0.01-1.45-0.84-2.54
			c-0.2-0.26-0.42-0.51-0.66-0.77c-0.45,0.42-0.95,0.84-1.48,1.24C243.11,381.38,243,382.15,242.84,382.86z"/>
		<path class="st3" d="M234.1,380.1c-0.84,1.09-1.15,2.04-0.84,2.54c0.27,0.44,1.02,0.51,1.44,0.51c0.55,0,1.19-0.1,1.91-0.29
			c-0.16-0.71-0.28-1.48-0.35-2.28c-0.54-0.4-1.04-0.82-1.49-1.25C234.52,379.58,234.3,379.84,234.1,380.1z"/>
		<path class="st3" d="M241.88,382.55c0.01,0,0.02,0.01,0.02,0.01c0.09-0.4,0.16-0.82,0.22-1.25c-0.18,0.12-0.36,0.23-0.54,0.34
			c-0.26,0.16-0.52,0.32-0.79,0.47C241.16,382.28,241.53,382.43,241.88,382.55z"/>
		<path class="st3" d="M237.32,381.32c0.06,0.43,0.13,0.84,0.22,1.23c0,0,0.01,0,0.01,0c0.35-0.13,0.71-0.27,1.08-0.43
			c-0.26-0.15-0.52-0.3-0.78-0.46C237.66,381.55,237.49,381.44,237.32,381.32z"/>
		<path class="st3" d="M237.78,383.51c0.07,0.23,0.15,0.46,0.23,0.67c0.49,1.28,1.13,2.05,1.72,2.05h0c0.59,0,1.22-0.77,1.71-2.05
			c0.08-0.21,0.15-0.43,0.22-0.66c-0.63-0.22-1.29-0.49-1.95-0.82C239.06,383.02,238.41,383.29,237.78,383.51z"/>
		<g id="g9991_2_">
		</g>
	</g>
	<g>
		<circle class="st3" cx="284.2" cy="378.03" r="1.74"/>
		<path class="st3" d="M276.78,375.24c0.17,0.58,0.52,1.22,1.04,1.9c0.22,0.29,0.47,0.58,0.74,0.87c-0.27,0.29-0.52,0.58-0.74,0.87
			c-0.52,0.68-0.87,1.32-1.04,1.9c-0.14,0.47-0.22,1.15,0.14,1.74c0.49,0.8,1.5,0.97,2.26,0.97c0.64,0,1.37-0.11,2.15-0.32
			c0.08,0.25,0.16,0.5,0.25,0.73c0.3,0.8,0.66,1.43,1.07,1.88c0.47,0.52,1.01,0.79,1.56,0.79h0c0.7,0,1.23-0.43,1.55-0.8
			c0.4-0.45,0.76-1.08,1.06-1.88c0.09-0.23,0.17-0.47,0.24-0.72c0.78,0.21,1.5,0.32,2.14,0.32h0c0.76,0,1.77-0.17,2.26-0.97
			c0.37-0.59,0.28-1.28,0.14-1.74c-0.17-0.58-0.52-1.22-1.04-1.9c-0.22-0.29-0.47-0.58-0.74-0.87c0.27-0.29,0.52-0.58,0.74-0.87
			c0.52-0.68,0.87-1.32,1.04-1.9c0.14-0.47,0.22-1.15-0.14-1.74c-0.49-0.8-1.5-0.97-2.26-0.97c-0.64,0-1.37,0.11-2.15,0.32
			c-0.08-0.26-0.16-0.5-0.25-0.74c-0.3-0.8-0.66-1.43-1.07-1.88c-0.47-0.52-1.01-0.8-1.56-0.8h0c-0.7,0-1.23,0.44-1.55,0.8
			c-0.4,0.45-0.76,1.09-1.06,1.89c-0.09,0.23-0.17,0.47-0.24,0.72c-0.78-0.21-1.5-0.32-2.14-0.32c-0.76,0-1.77,0.17-2.26,0.97
			C276.56,374.09,276.64,374.78,276.78,375.24z"/>
		<path class="st3" d="M286.14,373.16c-0.07-0.23-0.15-0.46-0.23-0.68c-0.49-1.28-1.13-2.05-1.72-2.05c-0.59,0-1.23,0.77-1.71,2.06
			c-0.08,0.21-0.15,0.43-0.22,0.66c0.63,0.22,1.29,0.49,1.95,0.82C284.86,373.65,285.51,373.38,286.14,373.16z"/>
		<path class="st3" d="M278.59,376.57c0.2,0.26,0.42,0.51,0.66,0.77c0.45-0.42,0.95-0.84,1.48-1.24c0.07-0.8,0.19-1.57,0.35-2.29
			c-0.71-0.19-1.35-0.29-1.89-0.29c-0.42,0-1.16,0.07-1.44,0.51C277.44,374.53,277.76,375.47,278.59,376.57z"/>
		<path class="st3" d="M287.31,373.81c0.16,0.71,0.28,1.48,0.35,2.28c0.54,0.4,1.04,0.82,1.49,1.25c0.24-0.26,0.46-0.52,0.66-0.77
			c0.84-1.09,1.15-2.04,0.84-2.54c-0.27-0.44-1.02-0.51-1.44-0.51C288.67,373.52,288.03,373.62,287.31,373.81z"/>
		<path class="st3" d="M282.04,374.11c-0.01,0-0.02-0.01-0.03-0.01c-0.09,0.4-0.16,0.82-0.22,1.25c0.18-0.12,0.36-0.23,0.54-0.34
			c0.26-0.16,0.52-0.32,0.79-0.46C282.75,374.38,282.39,374.24,282.04,374.11z"/>
		<path class="st3" d="M286.6,375.34c-0.06-0.43-0.13-0.84-0.22-1.24c0,0-0.01,0-0.01,0c-0.35,0.13-0.72,0.27-1.08,0.43
			c0.26,0.15,0.52,0.3,0.79,0.46C286.25,375.11,286.43,375.23,286.6,375.34z"/>
		<path class="st3" d="M281.62,378.03c0,0.48,0.02,0.95,0.05,1.41c0.37,0.27,0.77,0.53,1.17,0.78c0.45,0.28,0.9,0.54,1.36,0.77
			c0.46-0.24,0.91-0.49,1.36-0.77c0.41-0.25,0.8-0.52,1.18-0.79c0.03-0.46,0.05-0.94,0.04-1.42c0-0.48-0.02-0.95-0.05-1.41
			c-0.37-0.27-0.77-0.53-1.17-0.78c-0.45-0.28-0.9-0.54-1.36-0.77c-0.46,0.24-0.91,0.49-1.36,0.77c-0.41,0.25-0.8,0.52-1.18,0.79
			C281.64,377.08,281.62,377.55,281.62,378.03z"/>
		<path class="st3" d="M288.47,378.03c-0.23-0.21-0.47-0.42-0.72-0.63c0.01,0.21,0.01,0.42,0.01,0.62c0,0.21,0,0.43-0.01,0.64
			C288,378.45,288.24,378.24,288.47,378.03z"/>
		<path class="st3" d="M280.66,378.66c-0.01-0.21-0.01-0.42-0.01-0.63c0-0.21,0-0.43,0.01-0.64c-0.25,0.21-0.49,0.42-0.72,0.63
			C280.17,378.24,280.41,378.45,280.66,378.66z"/>
		<path class="st3" d="M287.33,382.25c0.71,0.19,1.35,0.29,1.89,0.29h0c0.42,0,1.16-0.07,1.44-0.51c0.31-0.5-0.01-1.45-0.84-2.54
			c-0.2-0.26-0.42-0.51-0.66-0.77c-0.45,0.42-0.95,0.84-1.48,1.24C287.6,380.77,287.49,381.54,287.33,382.25z"/>
		<path class="st3" d="M278.59,379.48c-0.84,1.09-1.15,2.04-0.84,2.54c0.27,0.44,1.02,0.51,1.44,0.51c0.55,0,1.19-0.1,1.91-0.29
			c-0.16-0.71-0.28-1.48-0.35-2.28c-0.54-0.4-1.04-0.82-1.49-1.25C279.01,378.97,278.79,379.23,278.59,379.48z"/>
		<path class="st3" d="M286.37,381.94c0.01,0,0.02,0.01,0.02,0.01c0.09-0.4,0.16-0.82,0.22-1.25c-0.18,0.12-0.36,0.23-0.54,0.34
			c-0.26,0.16-0.52,0.32-0.79,0.47C285.65,381.67,286.02,381.82,286.37,381.94z"/>
		<path class="st3" d="M281.81,380.71c0.06,0.43,0.13,0.84,0.22,1.23c0,0,0.01,0,0.01,0c0.35-0.13,0.71-0.27,1.08-0.43
			c-0.26-0.15-0.52-0.3-0.78-0.46C282.15,380.94,281.98,380.83,281.81,380.71z"/>
		<path class="st3" d="M282.27,382.9c0.07,0.23,0.15,0.46,0.23,0.67c0.49,1.28,1.13,2.05,1.72,2.05h0c0.59,0,1.22-0.77,1.71-2.05
			c0.08-0.21,0.15-0.43,0.22-0.66c-0.63-0.22-1.29-0.49-1.95-0.82C283.55,382.41,282.9,382.68,282.27,382.9z"/>
		<g id="g9991_3_">
		</g>
	</g>
	<g>
		<circle class="st3" cx="328.35" cy="378.05" r="1.74"/>
		<path class="st3" d="M320.92,375.26c0.17,0.58,0.52,1.22,1.04,1.9c0.22,0.29,0.47,0.58,0.74,0.87c-0.27,0.29-0.52,0.58-0.74,0.87
			c-0.52,0.68-0.87,1.32-1.04,1.9c-0.14,0.47-0.22,1.15,0.14,1.74c0.49,0.8,1.5,0.97,2.26,0.97c0.64,0,1.37-0.11,2.15-0.32
			c0.08,0.25,0.16,0.5,0.25,0.73c0.3,0.8,0.66,1.43,1.07,1.88c0.47,0.52,1.01,0.79,1.56,0.79h0c0.7,0,1.23-0.43,1.55-0.8
			c0.4-0.45,0.76-1.08,1.06-1.88c0.09-0.23,0.17-0.47,0.24-0.72c0.78,0.21,1.5,0.32,2.14,0.32h0c0.76,0,1.77-0.17,2.26-0.97
			c0.37-0.59,0.28-1.28,0.14-1.74c-0.17-0.58-0.52-1.22-1.04-1.9c-0.22-0.29-0.47-0.58-0.74-0.87c0.27-0.29,0.52-0.58,0.74-0.87
			c0.52-0.68,0.87-1.32,1.04-1.9c0.14-0.47,0.22-1.15-0.14-1.74c-0.49-0.8-1.5-0.97-2.26-0.97c-0.64,0-1.37,0.11-2.15,0.32
			c-0.08-0.26-0.16-0.5-0.25-0.74c-0.3-0.8-0.66-1.43-1.07-1.88c-0.47-0.52-1.01-0.8-1.56-0.8h0c-0.7,0-1.23,0.44-1.55,0.8
			c-0.4,0.45-0.76,1.09-1.06,1.89c-0.09,0.23-0.17,0.47-0.24,0.72c-0.78-0.21-1.5-0.32-2.14-0.32c-0.76,0-1.77,0.17-2.26,0.97
			C320.7,374.11,320.79,374.8,320.92,375.26z"/>
		<path class="st3" d="M330.28,373.18c-0.07-0.23-0.15-0.46-0.23-0.68c-0.49-1.28-1.13-2.05-1.72-2.05c-0.59,0-1.23,0.77-1.71,2.06
			c-0.08,0.21-0.15,0.43-0.22,0.66c0.63,0.22,1.29,0.49,1.95,0.82C329,373.67,329.65,373.4,330.28,373.18z"/>
		<path class="st3" d="M322.73,376.59c0.2,0.26,0.42,0.51,0.66,0.77c0.45-0.42,0.95-0.84,1.48-1.24c0.07-0.8,0.19-1.57,0.35-2.29
			c-0.71-0.19-1.35-0.29-1.89-0.29c-0.42,0-1.16,0.07-1.44,0.51C321.58,374.55,321.9,375.49,322.73,376.59z"/>
		<path class="st3" d="M331.46,373.83c0.16,0.71,0.28,1.48,0.35,2.28c0.54,0.4,1.04,0.82,1.49,1.25c0.24-0.26,0.46-0.52,0.66-0.77
			c0.84-1.09,1.15-2.04,0.84-2.54c-0.27-0.44-1.02-0.51-1.44-0.51C332.82,373.54,332.17,373.64,331.46,373.83z"/>
		<path class="st3" d="M326.18,374.13c-0.01,0-0.02-0.01-0.03-0.01c-0.09,0.4-0.16,0.82-0.22,1.25c0.18-0.12,0.36-0.23,0.54-0.34
			c0.26-0.16,0.52-0.32,0.79-0.46C326.9,374.4,326.53,374.26,326.18,374.13z"/>
		<path class="st3" d="M330.74,375.36c-0.06-0.43-0.13-0.84-0.22-1.24c0,0-0.01,0-0.01,0c-0.35,0.13-0.72,0.27-1.08,0.43
			c0.26,0.15,0.52,0.3,0.79,0.46C330.4,375.14,330.57,375.25,330.74,375.36z"/>
		<path class="st3" d="M325.77,378.05c0,0.48,0.02,0.95,0.05,1.41c0.37,0.27,0.77,0.53,1.17,0.78c0.45,0.28,0.9,0.54,1.36,0.77
			c0.46-0.24,0.91-0.49,1.36-0.77c0.41-0.25,0.8-0.52,1.18-0.79c0.03-0.46,0.05-0.94,0.04-1.42c0-0.48-0.02-0.95-0.05-1.41
			c-0.37-0.27-0.77-0.53-1.17-0.78c-0.45-0.28-0.9-0.54-1.36-0.77c-0.46,0.24-0.91,0.49-1.36,0.77c-0.41,0.25-0.8,0.52-1.18,0.79
			C325.78,377.1,325.76,377.57,325.77,378.05z"/>
		<path class="st3" d="M332.61,378.05c-0.23-0.21-0.47-0.42-0.72-0.63c0.01,0.21,0.01,0.42,0.01,0.62c0,0.21,0,0.43-0.01,0.64
			C332.14,378.47,332.38,378.26,332.61,378.05z"/>
		<path class="st3" d="M324.8,378.68c-0.01-0.21-0.01-0.42-0.01-0.63c0-0.21,0-0.43,0.01-0.64c-0.25,0.21-0.49,0.42-0.72,0.63
			C324.31,378.26,324.55,378.47,324.8,378.68z"/>
		<path class="st3" d="M331.47,382.27c0.71,0.19,1.35,0.29,1.89,0.29h0c0.42,0,1.16-0.07,1.44-0.51c0.31-0.5-0.01-1.45-0.84-2.54
			c-0.2-0.26-0.42-0.51-0.66-0.77c-0.45,0.42-0.95,0.84-1.48,1.24C331.75,380.79,331.63,381.56,331.47,382.27z"/>
		<path class="st3" d="M322.73,379.51c-0.84,1.09-1.15,2.04-0.84,2.54c0.27,0.44,1.02,0.51,1.44,0.51c0.55,0,1.19-0.1,1.91-0.29
			c-0.16-0.71-0.28-1.48-0.35-2.28c-0.54-0.4-1.04-0.82-1.49-1.25C323.15,378.99,322.93,379.25,322.73,379.51z"/>
		<path class="st3" d="M330.51,381.96c0.01,0,0.02,0.01,0.02,0.01c0.09-0.4,0.16-0.82,0.22-1.25c-0.18,0.12-0.36,0.23-0.54,0.34
			c-0.26,0.16-0.52,0.32-0.79,0.47C329.8,381.69,330.16,381.84,330.51,381.96z"/>
		<path class="st3" d="M325.95,380.73c0.06,0.43,0.13,0.84,0.22,1.23c0,0,0.01,0,0.01,0c0.35-0.13,0.71-0.27,1.08-0.43
			c-0.26-0.15-0.52-0.3-0.78-0.46C326.3,380.96,326.12,380.85,325.95,380.73z"/>
		<path class="st3" d="M326.41,382.92c0.07,0.23,0.15,0.46,0.23,0.67c0.49,1.28,1.13,2.05,1.72,2.05h0c0.59,0,1.22-0.77,1.71-2.05
			c0.08-0.21,0.15-0.43,0.22-0.66c-0.63-0.22-1.29-0.49-1.95-0.82C327.69,382.43,327.04,382.7,326.41,382.92z"/>
		<g id="g9991_4_">
		</g>
	</g>
	<g>
		<circle class="st3" cx="372.16" cy="377.97" r="1.74"/>
		<path class="st3" d="M364.74,375.19c0.17,0.58,0.52,1.22,1.04,1.9c0.22,0.29,0.47,0.58,0.74,0.87c-0.27,0.29-0.52,0.58-0.74,0.87
			c-0.52,0.68-0.87,1.32-1.04,1.9c-0.14,0.47-0.22,1.15,0.14,1.74c0.49,0.8,1.5,0.97,2.26,0.97c0.64,0,1.37-0.11,2.15-0.32
			c0.08,0.25,0.16,0.5,0.25,0.73c0.3,0.8,0.66,1.43,1.07,1.88c0.47,0.52,1.01,0.79,1.56,0.79h0c0.7,0,1.23-0.43,1.55-0.8
			c0.4-0.45,0.76-1.08,1.06-1.88c0.09-0.23,0.17-0.47,0.24-0.72c0.78,0.21,1.5,0.32,2.14,0.32h0c0.76,0,1.77-0.17,2.26-0.97
			c0.37-0.59,0.28-1.28,0.14-1.74c-0.17-0.58-0.52-1.22-1.04-1.9c-0.22-0.29-0.47-0.58-0.74-0.87c0.27-0.29,0.52-0.58,0.74-0.87
			c0.52-0.68,0.87-1.32,1.04-1.9c0.14-0.47,0.22-1.15-0.14-1.74c-0.49-0.8-1.5-0.97-2.26-0.97c-0.64,0-1.37,0.11-2.15,0.32
			c-0.08-0.26-0.16-0.5-0.25-0.74c-0.3-0.8-0.66-1.43-1.07-1.88c-0.47-0.52-1.01-0.8-1.56-0.8h0c-0.7,0-1.23,0.44-1.55,0.8
			c-0.4,0.45-0.76,1.09-1.06,1.89c-0.09,0.23-0.17,0.47-0.24,0.72c-0.78-0.21-1.5-0.32-2.14-0.32c-0.76,0-1.77,0.17-2.26,0.97
			C364.51,374.04,364.6,374.72,364.74,375.19z"/>
		<path class="st3" d="M374.09,373.1c-0.07-0.23-0.15-0.46-0.23-0.68c-0.49-1.28-1.13-2.05-1.72-2.05c-0.59,0-1.23,0.77-1.71,2.06
			c-0.08,0.21-0.15,0.43-0.22,0.66c0.63,0.22,1.29,0.49,1.95,0.82C372.82,373.59,373.47,373.32,374.09,373.1z"/>
		<path class="st3" d="M366.55,376.51c0.2,0.26,0.42,0.51,0.66,0.77c0.45-0.42,0.95-0.84,1.48-1.24c0.07-0.8,0.19-1.57,0.35-2.29
			c-0.71-0.19-1.35-0.29-1.89-0.29c-0.42,0-1.16,0.07-1.44,0.51C365.4,374.47,365.71,375.42,366.55,376.51z"/>
		<path class="st3" d="M375.27,373.76c0.16,0.71,0.28,1.48,0.35,2.28c0.54,0.4,1.04,0.82,1.49,1.25c0.24-0.26,0.46-0.52,0.66-0.77
			c0.84-1.09,1.15-2.04,0.84-2.54c-0.27-0.44-1.02-0.51-1.44-0.51C376.63,373.47,375.98,373.57,375.27,373.76z"/>
		<path class="st3" d="M370,374.05c-0.01,0-0.02-0.01-0.03-0.01c-0.09,0.4-0.16,0.82-0.22,1.25c0.18-0.12,0.36-0.23,0.54-0.34
			c0.26-0.16,0.52-0.32,0.79-0.46C370.71,374.32,370.35,374.18,370,374.05z"/>
		<path class="st3" d="M374.56,375.29c-0.06-0.43-0.13-0.84-0.22-1.24c0,0-0.01,0-0.01,0c-0.35,0.13-0.72,0.27-1.08,0.43
			c0.26,0.15,0.52,0.3,0.79,0.46C374.21,375.06,374.39,375.17,374.56,375.29z"/>
		<path class="st3" d="M369.58,377.97c0,0.48,0.02,0.95,0.05,1.41c0.37,0.27,0.77,0.53,1.17,0.78c0.45,0.28,0.9,0.54,1.36,0.77
			c0.46-0.24,0.91-0.49,1.36-0.77c0.41-0.25,0.8-0.52,1.18-0.79c0.03-0.46,0.05-0.94,0.04-1.42c0-0.48-0.02-0.95-0.05-1.41
			c-0.37-0.27-0.77-0.53-1.17-0.78c-0.45-0.28-0.9-0.54-1.36-0.77c-0.46,0.24-0.91,0.49-1.36,0.77c-0.41,0.25-0.8,0.52-1.18,0.79
			C369.6,377.02,369.58,377.5,369.58,377.97z"/>
		<path class="st3" d="M376.43,377.97c-0.23-0.21-0.47-0.42-0.72-0.63c0.01,0.21,0.01,0.42,0.01,0.62c0,0.21,0,0.43-0.01,0.64
			C375.96,378.39,376.2,378.18,376.43,377.97z"/>
		<path class="st3" d="M368.62,378.6c-0.01-0.21-0.01-0.42-0.01-0.63c0-0.21,0-0.43,0.01-0.64c-0.25,0.21-0.49,0.42-0.72,0.63
			C368.12,378.18,368.37,378.39,368.62,378.6z"/>
		<path class="st3" d="M375.29,382.19c0.71,0.19,1.35,0.29,1.89,0.29h0c0.42,0,1.16-0.07,1.44-0.51c0.31-0.5-0.01-1.45-0.84-2.54
			c-0.2-0.26-0.42-0.51-0.66-0.77c-0.45,0.42-0.95,0.84-1.48,1.24C375.56,380.71,375.44,381.48,375.29,382.19z"/>
		<path class="st3" d="M366.55,379.43c-0.84,1.09-1.15,2.04-0.84,2.54c0.27,0.44,1.02,0.51,1.44,0.51c0.55,0,1.19-0.1,1.91-0.29
			c-0.16-0.71-0.28-1.48-0.35-2.28c-0.54-0.4-1.04-0.82-1.49-1.25C366.97,378.92,366.75,379.17,366.55,379.43z"/>
		<path class="st3" d="M374.33,381.89c0.01,0,0.02,0.01,0.02,0.01c0.09-0.4,0.16-0.82,0.22-1.25c-0.18,0.12-0.36,0.23-0.54,0.34
			c-0.26,0.16-0.52,0.32-0.79,0.47C373.61,381.62,373.97,381.76,374.33,381.89z"/>
		<path class="st3" d="M369.76,380.66c0.06,0.43,0.13,0.84,0.22,1.23c0,0,0.01,0,0.01,0c0.35-0.13,0.71-0.27,1.08-0.43
			c-0.26-0.15-0.52-0.3-0.78-0.46C370.11,380.88,369.94,380.77,369.76,380.66z"/>
		<path class="st3" d="M370.23,382.84c0.07,0.23,0.15,0.46,0.23,0.67c0.49,1.28,1.13,2.05,1.72,2.05h0c0.59,0,1.22-0.77,1.71-2.05
			c0.08-0.21,0.15-0.43,0.22-0.66c-0.63-0.22-1.29-0.49-1.95-0.82C371.5,382.35,370.85,382.63,370.23,382.84z"/>
		<g id="g9991_5_">
		</g>
	</g>
	<g>
		<circle class="st3" cx="417.16" cy="378.59" r="1.74"/>
		<path class="st3" d="M409.74,375.81c0.17,0.58,0.52,1.22,1.04,1.9c0.22,0.29,0.47,0.58,0.74,0.87c-0.27,0.29-0.52,0.58-0.74,0.87
			c-0.52,0.68-0.87,1.32-1.04,1.9c-0.14,0.47-0.22,1.15,0.14,1.74c0.49,0.8,1.5,0.97,2.26,0.97c0.64,0,1.37-0.11,2.15-0.32
			c0.08,0.25,0.16,0.5,0.25,0.73c0.3,0.8,0.66,1.43,1.07,1.88c0.47,0.52,1.01,0.79,1.56,0.79h0c0.7,0,1.23-0.43,1.55-0.8
			c0.4-0.45,0.76-1.08,1.06-1.88c0.09-0.23,0.17-0.47,0.24-0.72c0.78,0.21,1.5,0.32,2.14,0.32h0c0.76,0,1.77-0.17,2.26-0.97
			c0.37-0.59,0.28-1.28,0.14-1.74c-0.17-0.58-0.52-1.22-1.04-1.9c-0.22-0.29-0.47-0.58-0.74-0.87c0.27-0.29,0.52-0.58,0.74-0.87
			c0.52-0.68,0.87-1.32,1.04-1.9c0.14-0.47,0.22-1.15-0.14-1.74c-0.49-0.8-1.5-0.97-2.26-0.97c-0.64,0-1.37,0.11-2.15,0.32
			c-0.08-0.26-0.16-0.5-0.25-0.74c-0.3-0.8-0.66-1.43-1.07-1.88c-0.47-0.52-1.01-0.8-1.56-0.8h0c-0.7,0-1.23,0.44-1.55,0.8
			c-0.4,0.45-0.76,1.09-1.06,1.89c-0.09,0.23-0.17,0.47-0.24,0.72c-0.78-0.21-1.5-0.32-2.14-0.32c-0.76,0-1.77,0.17-2.26,0.97
			C409.52,374.66,409.6,375.34,409.74,375.81z"/>
		<path class="st3" d="M419.1,373.72c-0.07-0.23-0.15-0.46-0.23-0.68c-0.49-1.28-1.13-2.05-1.72-2.05c-0.59,0-1.23,0.77-1.71,2.06
			c-0.08,0.21-0.15,0.43-0.22,0.66c0.63,0.22,1.29,0.49,1.95,0.82C417.82,374.21,418.47,373.94,419.1,373.72z"/>
		<path class="st3" d="M411.55,377.13c0.2,0.26,0.42,0.51,0.66,0.77c0.45-0.42,0.95-0.84,1.48-1.24c0.07-0.8,0.19-1.57,0.35-2.29
			c-0.71-0.19-1.35-0.29-1.89-0.29c-0.42,0-1.16,0.07-1.44,0.51C410.4,375.09,410.72,376.04,411.55,377.13z"/>
		<path class="st3" d="M420.28,374.38c0.16,0.71,0.28,1.48,0.35,2.28c0.54,0.4,1.04,0.82,1.49,1.25c0.24-0.26,0.46-0.52,0.66-0.77
			c0.84-1.09,1.15-2.04,0.84-2.54c-0.27-0.44-1.02-0.51-1.44-0.51C421.63,374.09,420.99,374.19,420.28,374.38z"/>
		<path class="st3" d="M415,374.67c-0.01,0-0.02-0.01-0.03-0.01c-0.09,0.4-0.16,0.82-0.22,1.25c0.18-0.12,0.36-0.23,0.54-0.34
			c0.26-0.16,0.52-0.32,0.79-0.46C415.71,374.94,415.35,374.8,415,374.67z"/>
		<path class="st3" d="M419.56,375.91c-0.06-0.43-0.13-0.84-0.22-1.24c0,0-0.01,0-0.01,0c-0.35,0.13-0.72,0.27-1.08,0.43
			c0.26,0.15,0.52,0.3,0.79,0.46C419.21,375.68,419.39,375.79,419.56,375.91z"/>
		<path class="st3" d="M414.58,378.6c0,0.48,0.02,0.95,0.05,1.41c0.37,0.27,0.77,0.53,1.17,0.78c0.45,0.28,0.9,0.54,1.36,0.77
			c0.46-0.24,0.91-0.49,1.36-0.77c0.41-0.25,0.8-0.52,1.18-0.79c0.03-0.46,0.05-0.94,0.04-1.42c0-0.48-0.02-0.95-0.05-1.41
			c-0.37-0.27-0.77-0.53-1.17-0.78c-0.45-0.28-0.9-0.54-1.36-0.77c-0.46,0.24-0.91,0.49-1.36,0.77c-0.41,0.25-0.8,0.52-1.18,0.79
			C414.6,377.64,414.58,378.12,414.58,378.6z"/>
		<path class="st3" d="M421.43,378.59c-0.23-0.21-0.47-0.42-0.72-0.63c0.01,0.21,0.01,0.42,0.01,0.62c0,0.21,0,0.43-0.01,0.64
			C420.96,379.01,421.2,378.8,421.43,378.59z"/>
		<path class="st3" d="M413.62,379.22c-0.01-0.21-0.01-0.42-0.01-0.63c0-0.21,0-0.43,0.01-0.64c-0.25,0.21-0.49,0.42-0.72,0.63
			C413.13,378.8,413.37,379.01,413.62,379.22z"/>
		<path class="st3" d="M420.29,382.81c0.71,0.19,1.35,0.29,1.89,0.29h0c0.42,0,1.16-0.07,1.44-0.51c0.31-0.5-0.01-1.45-0.84-2.54
			c-0.2-0.26-0.42-0.51-0.66-0.77c-0.45,0.42-0.95,0.84-1.48,1.24C420.56,381.33,420.45,382.1,420.29,382.81z"/>
		<path class="st3" d="M411.55,380.05c-0.84,1.09-1.15,2.04-0.84,2.54c0.27,0.44,1.02,0.51,1.44,0.51c0.55,0,1.19-0.1,1.91-0.29
			c-0.16-0.71-0.28-1.48-0.35-2.28c-0.54-0.4-1.04-0.82-1.49-1.25C411.97,379.54,411.75,379.79,411.55,380.05z"/>
		<path class="st3" d="M419.33,382.51c0.01,0,0.02,0.01,0.02,0.01c0.09-0.4,0.16-0.82,0.22-1.25c-0.18,0.12-0.36,0.23-0.54,0.34
			c-0.26,0.16-0.52,0.32-0.79,0.47C418.61,382.24,418.98,382.38,419.33,382.51z"/>
		<path class="st3" d="M414.77,381.28c0.06,0.43,0.13,0.84,0.22,1.23c0,0,0.01,0,0.01,0c0.35-0.13,0.71-0.27,1.08-0.43
			c-0.26-0.15-0.52-0.3-0.78-0.46C415.12,381.5,414.94,381.39,414.77,381.28z"/>
		<path class="st3" d="M415.23,383.46c0.07,0.23,0.15,0.46,0.23,0.67c0.49,1.28,1.13,2.05,1.72,2.05h0c0.59,0,1.22-0.77,1.71-2.05
			c0.08-0.21,0.15-0.43,0.22-0.66c-0.63-0.22-1.29-0.49-1.95-0.82C416.51,382.98,415.86,383.25,415.23,383.46z"/>
		<g id="g9991_6_">
		</g>
	</g>
	<g>
		<circle class="st3" cx="462.42" cy="378.36" r="1.74"/>
		<path class="st3" d="M455,375.58c0.17,0.58,0.52,1.22,1.04,1.9c0.22,0.29,0.47,0.58,0.74,0.87c-0.27,0.29-0.52,0.58-0.74,0.87
			c-0.52,0.68-0.87,1.32-1.04,1.9c-0.14,0.47-0.22,1.15,0.14,1.74c0.49,0.8,1.5,0.97,2.26,0.97c0.64,0,1.37-0.11,2.15-0.32
			c0.08,0.25,0.16,0.5,0.25,0.73c0.3,0.8,0.66,1.43,1.07,1.88c0.47,0.52,1.01,0.79,1.56,0.79h0c0.7,0,1.23-0.43,1.55-0.8
			c0.4-0.45,0.76-1.08,1.06-1.88c0.09-0.23,0.17-0.47,0.24-0.72c0.78,0.21,1.5,0.32,2.14,0.32h0c0.76,0,1.77-0.17,2.26-0.97
			c0.37-0.59,0.28-1.28,0.14-1.74c-0.17-0.58-0.52-1.22-1.04-1.9c-0.22-0.29-0.47-0.58-0.74-0.87c0.27-0.29,0.52-0.58,0.74-0.87
			c0.52-0.68,0.87-1.32,1.04-1.9c0.14-0.47,0.22-1.15-0.14-1.74c-0.49-0.8-1.5-0.97-2.26-0.97c-0.64,0-1.37,0.11-2.15,0.32
			c-0.08-0.26-0.16-0.5-0.25-0.74c-0.3-0.8-0.66-1.43-1.07-1.88c-0.47-0.52-1.01-0.8-1.56-0.8h0c-0.7,0-1.23,0.44-1.55,0.8
			c-0.4,0.45-0.76,1.09-1.06,1.89c-0.09,0.23-0.17,0.47-0.24,0.72c-0.78-0.21-1.5-0.32-2.14-0.32c-0.76,0-1.77,0.17-2.26,0.97
			C454.77,374.43,454.86,375.11,455,375.58z"/>
		<path class="st3" d="M464.35,373.5c-0.07-0.23-0.15-0.46-0.23-0.68c-0.49-1.28-1.13-2.05-1.72-2.05c-0.59,0-1.23,0.77-1.71,2.06
			c-0.08,0.21-0.15,0.43-0.22,0.66c0.63,0.22,1.29,0.49,1.95,0.82C463.08,373.98,463.73,373.71,464.35,373.5z"/>
		<path class="st3" d="M456.81,376.9c0.2,0.26,0.42,0.51,0.66,0.77c0.45-0.42,0.95-0.84,1.48-1.24c0.07-0.8,0.19-1.57,0.35-2.29
			c-0.71-0.19-1.35-0.29-1.89-0.29c-0.42,0-1.16,0.07-1.44,0.51C455.66,374.86,455.97,375.81,456.81,376.9z"/>
		<path class="st3" d="M465.53,374.15c0.16,0.71,0.28,1.48,0.35,2.28c0.54,0.4,1.04,0.82,1.49,1.25c0.24-0.26,0.46-0.52,0.66-0.77
			c0.84-1.09,1.15-2.04,0.84-2.54c-0.27-0.44-1.02-0.51-1.44-0.51C466.89,373.86,466.24,373.96,465.53,374.15z"/>
		<path class="st3" d="M460.25,374.45c-0.01,0-0.02-0.01-0.03-0.01c-0.09,0.4-0.16,0.82-0.22,1.25c0.18-0.12,0.36-0.23,0.54-0.34
			c0.26-0.16,0.52-0.32,0.79-0.46C460.97,374.72,460.61,374.57,460.25,374.45z"/>
		<path class="st3" d="M464.82,375.68c-0.06-0.43-0.13-0.84-0.22-1.24c0,0-0.01,0-0.01,0c-0.35,0.13-0.72,0.27-1.08,0.43
			c0.26,0.15,0.52,0.3,0.79,0.46C464.47,375.45,464.64,375.56,464.82,375.68z"/>
		<path class="st3" d="M459.84,378.37c0,0.48,0.02,0.95,0.05,1.41c0.37,0.27,0.77,0.53,1.17,0.78c0.45,0.28,0.9,0.54,1.36,0.77
			c0.46-0.24,0.91-0.49,1.36-0.77c0.41-0.25,0.8-0.52,1.18-0.79c0.03-0.46,0.05-0.94,0.04-1.42c0-0.48-0.02-0.95-0.05-1.41
			c-0.37-0.27-0.77-0.53-1.17-0.78c-0.45-0.28-0.9-0.54-1.36-0.77c-0.46,0.24-0.91,0.49-1.36,0.77c-0.41,0.25-0.8,0.52-1.18,0.79
			C459.85,377.41,459.84,377.89,459.84,378.37z"/>
		<path class="st3" d="M466.68,378.36c-0.23-0.21-0.47-0.42-0.72-0.63c0.01,0.21,0.01,0.42,0.01,0.62c0,0.21,0,0.43-0.01,0.64
			C466.22,378.78,466.46,378.57,466.68,378.36z"/>
		<path class="st3" d="M458.87,378.99c-0.01-0.21-0.01-0.42-0.01-0.63c0-0.21,0-0.43,0.01-0.64c-0.25,0.21-0.49,0.42-0.72,0.63
			C458.38,378.57,458.62,378.79,458.87,378.99z"/>
		<path class="st3" d="M465.54,382.59c0.71,0.19,1.35,0.29,1.89,0.29h0c0.42,0,1.16-0.07,1.44-0.51c0.31-0.5-0.01-1.45-0.84-2.54
			c-0.2-0.26-0.42-0.51-0.66-0.77c-0.45,0.42-0.95,0.84-1.48,1.24C465.82,381.1,465.7,381.87,465.54,382.59z"/>
		<path class="st3" d="M456.81,379.82c-0.84,1.09-1.15,2.04-0.84,2.54c0.27,0.44,1.02,0.51,1.44,0.51c0.55,0,1.19-0.1,1.91-0.29
			c-0.16-0.71-0.28-1.48-0.35-2.28c-0.54-0.4-1.04-0.82-1.49-1.25C457.22,379.31,457,379.57,456.81,379.82z"/>
		<path class="st3" d="M464.58,382.28c0.01,0,0.02,0.01,0.02,0.01c0.09-0.4,0.16-0.82,0.22-1.25c-0.18,0.12-0.36,0.23-0.54,0.34
			c-0.26,0.16-0.52,0.32-0.79,0.47C463.87,382.01,464.23,382.15,464.58,382.28z"/>
		<path class="st3" d="M460.02,381.05c0.06,0.43,0.13,0.84,0.22,1.23c0,0,0.01,0,0.01,0c0.35-0.13,0.71-0.27,1.08-0.43
			c-0.26-0.15-0.52-0.3-0.78-0.46C460.37,381.27,460.19,381.16,460.02,381.05z"/>
		<path class="st3" d="M460.49,383.23c0.07,0.23,0.15,0.46,0.23,0.67c0.49,1.28,1.13,2.05,1.72,2.05h0c0.59,0,1.22-0.77,1.71-2.05
			c0.08-0.21,0.15-0.43,0.22-0.66c-0.63-0.22-1.29-0.49-1.95-0.82C461.76,382.75,461.11,383.02,460.49,383.23z"/>
		<g id="g9991_7_">
		</g>
	</g>
</g>
<g id="Layer_2">
	<g>
		<path class="st4" d="M189.39,425.08v-2.1h1.39v0.41h-0.93v0.43h0.8v0.4h-0.8v0.86H189.39z"/>
		<path class="st4" d="M192.25,423.5h0.41l-0.61,1.82c-0.08,0.24-0.21,0.36-0.48,0.36h-0.28v-0.35h0.3l0.05-0.17l-0.55-1.66h0.44
			l0.23,0.74l0.11,0.46h0.02l0.12-0.46L192.25,423.5z"/>
		<path class="st4" d="M193.01,425.08v-0.35l0.78-0.88h-0.76v-0.35h1.27v0.35l-0.79,0.88h0.81v0.35H193.01z"/>
		<path class="st4" d="M194.84,423.11v-0.07c0-0.13,0.08-0.22,0.26-0.22c0.18,0,0.26,0.09,0.26,0.22v0.07
			c0,0.13-0.08,0.22-0.26,0.22C194.92,423.33,194.84,423.24,194.84,423.11z M194.88,423.5h0.44v1.58h-0.44V423.5z"/>
		<path class="st4" d="M195.86,424.29c0-0.5,0.26-0.82,0.74-0.82c0.32,0,0.54,0.15,0.63,0.41l-0.36,0.16
			c-0.03-0.12-0.11-0.22-0.27-0.22c-0.18,0-0.27,0.13-0.27,0.33v0.29c0,0.2,0.09,0.33,0.27,0.33c0.18,0,0.25-0.11,0.29-0.24
			l0.35,0.15c-0.1,0.3-0.33,0.44-0.64,0.44C196.12,425.12,195.86,424.79,195.86,424.29z"/>
		<path class="st4" d="M197.74,422.85h0.44v1.31h0.02l0.2-0.29l0.32-0.38h0.49l-0.53,0.6l0.59,0.97h-0.53l-0.35-0.67l-0.2,0.22v0.45
			h-0.44V422.85z"/>
		<path class="st4" d="M199.51,424.29c0-0.5,0.26-0.82,0.74-0.82c0.52,0,0.73,0.38,0.73,0.81v0.13h-1.01v0.02
			c0,0.21,0.11,0.34,0.35,0.34c0.19,0,0.29-0.09,0.39-0.19l0.22,0.28c-0.14,0.16-0.37,0.26-0.66,0.26
			C199.79,425.12,199.51,424.79,199.51,424.29z M199.97,424.12v0.02h0.55v-0.03c0-0.19-0.09-0.32-0.26-0.32
			C200.09,423.79,199.97,423.92,199.97,424.12z M200.32,423.34l-0.26-0.13l0.3-0.58l0.37,0.18L200.32,423.34z"/>
		<path class="st4" d="M191.22,428.41h-0.02c-0.04,0.17-0.22,0.3-0.42,0.3c-0.4,0-0.61-0.29-0.61-0.83c0-0.53,0.21-0.82,0.61-0.82
			c0.2,0,0.38,0.13,0.42,0.3h0.02v-0.26h0.44v2.18h-0.44V428.41z M191.22,428.12v-0.47c0-0.14-0.12-0.23-0.29-0.23
			s-0.29,0.13-0.29,0.33v0.27c0,0.2,0.12,0.33,0.29,0.33S191.22,428.27,191.22,428.12z"/>
		<path class="st4" d="M193.23,428.41h-0.02c-0.05,0.16-0.18,0.3-0.44,0.3c-0.32,0-0.49-0.23-0.49-0.62v-0.99h0.44v0.95
			c0,0.19,0.06,0.3,0.23,0.3c0.14,0,0.28-0.08,0.28-0.23v-1.03h0.44v1.58h-0.44V428.41z"/>
		<path class="st4" d="M194.31,426.45h0.44v0.91h0.02c0.04-0.17,0.22-0.3,0.42-0.3c0.4,0,0.61,0.29,0.61,0.82
			c0,0.54-0.21,0.83-0.61,0.83c-0.2,0-0.38-0.13-0.42-0.3h-0.02v0.26h-0.44V426.45z M195.34,428.03v-0.27c0-0.2-0.12-0.33-0.29-0.33
			s-0.29,0.09-0.29,0.23v0.47c0,0.14,0.12,0.23,0.29,0.23S195.34,428.22,195.34,428.03z"/>
		<path class="st4" d="M196.32,426.71v-0.07c0-0.13,0.08-0.22,0.26-0.22c0.18,0,0.26,0.09,0.26,0.22v0.07
			c0,0.13-0.08,0.22-0.26,0.22C196.4,426.93,196.32,426.84,196.32,426.71z M196.36,427.1h0.44v1.58h-0.44V427.1z"/>
		<path class="st4" d="M197.99,428.68c-0.31,0-0.47-0.16-0.47-0.46v-0.77h-0.22v-0.35h0.11c0.12,0,0.16-0.06,0.16-0.17v-0.26h0.4
			v0.43h0.31v0.35h-0.31v0.89h0.29v0.35H197.99z"/>
		<path class="st4" d="M199.78,427.1h0.42l-0.61,1.82c-0.08,0.24-0.21,0.36-0.48,0.36h-0.28v-0.35h0.3l0.05-0.17l-0.55-1.66h0.44
			l0.23,0.74l0.11,0.46h0.02l0.12-0.46L199.78,427.1z"/>
	</g>
	<g id="LWPOLYLINE_372_">
		<polygon class="st0" points="195.24,410.49 203,412.57 208.69,418.25 210.77,426.02 208.69,433.78 203,439.47 195.24,441.55 
			187.47,439.47 181.79,433.78 179.71,426.02 181.79,418.25 187.47,412.57 		"/>
	</g>
	<g id="LWPOLYLINE_373_">
		<polygon class="st1" points="195.24,405.49 205.5,408.24 213.02,415.75 215.77,426.02 213.02,436.28 205.5,443.8 195.24,446.55 
			184.97,443.8 177.46,436.28 174.71,426.02 177.46,415.75 184.97,408.24 		"/>
	</g>
	<g>
		<path class="st4" d="M233.11,424.17l-0.27,0.33v0.58h-0.46v-2.1h0.46v1h0.02l0.3-0.41l0.47-0.59h0.52l-0.71,0.86l0.77,1.24h-0.54
			L233.11,424.17z"/>
		<path class="st4" d="M234.95,425.08l-0.52-1.58h0.44l0.2,0.64l0.15,0.57h0.02l0.15-0.57l0.19-0.64h0.42l-0.52,1.58H234.95z"/>
		<path class="st4" d="M237.59,425.08c-0.16,0-0.27-0.11-0.3-0.28h-0.02c-0.05,0.2-0.22,0.31-0.46,0.31c-0.32,0-0.49-0.19-0.49-0.46
			c0-0.33,0.26-0.49,0.68-0.49h0.25v-0.1c0-0.15-0.07-0.25-0.26-0.25c-0.18,0-0.27,0.09-0.34,0.19l-0.26-0.23
			c0.13-0.19,0.31-0.3,0.64-0.3c0.44,0,0.67,0.2,0.67,0.58v0.69h0.15v0.35H237.59z M237.24,424.6v-0.19h-0.22
			c-0.17,0-0.26,0.06-0.26,0.18v0.05c0,0.11,0.08,0.17,0.21,0.17C237.12,424.81,237.24,424.75,237.24,424.6z"/>
		<path class="st4" d="M238.36,425.08v-1.58h0.44v0.27h0.02c0.06-0.17,0.19-0.3,0.44-0.3c0.32,0,0.49,0.23,0.49,0.62v0.99h-0.44
			v-0.95c0-0.2-0.06-0.3-0.22-0.3c-0.14,0-0.29,0.08-0.29,0.23v1.02H238.36z"/>
		<path class="st4" d="M240.92,425.08c-0.31,0-0.47-0.16-0.47-0.46v-0.77h-0.22v-0.35h0.11c0.12,0,0.16-0.06,0.16-0.17v-0.26h0.4
			v0.43h0.31v0.35h-0.31v0.89h0.29v0.35H240.92z"/>
		<path class="st4" d="M241.63,424.29c0-0.51,0.28-0.82,0.74-0.82s0.74,0.32,0.74,0.82c0,0.51-0.28,0.83-0.74,0.83
			S241.63,424.8,241.63,424.29z M242.65,424.45v-0.32c0-0.2-0.1-0.31-0.28-0.31s-0.28,0.11-0.28,0.31v0.32c0,0.2,0.1,0.31,0.28,0.31
			S242.65,424.65,242.65,424.45z"/>
		<path class="st4" d="M243.96,425.08l-0.52-1.58h0.44l0.2,0.64l0.15,0.57h0.02l0.15-0.57l0.19-0.64h0.42l-0.52,1.58H243.96z"/>
		<path class="st4" d="M245.34,424.29c0-0.5,0.26-0.82,0.74-0.82c0.52,0,0.73,0.38,0.73,0.81v0.13h-1.01v0.02
			c0,0.21,0.11,0.34,0.35,0.34c0.19,0,0.29-0.09,0.39-0.19l0.22,0.28c-0.14,0.16-0.37,0.26-0.66,0.26
			C245.61,425.12,245.34,424.79,245.34,424.29z M245.8,424.12v0.02h0.55v-0.03c0-0.19-0.09-0.32-0.26-0.32
			C245.91,423.79,245.8,423.92,245.8,424.12z M246.14,423.34l-0.26-0.13l0.3-0.58l0.37,0.18L246.14,423.34z"/>
		<path class="st4" d="M233.32,427.89c0-0.51,0.28-0.82,0.74-0.82s0.74,0.32,0.74,0.82c0,0.51-0.28,0.83-0.74,0.83
			S233.32,428.4,233.32,427.89z M234.33,428.05v-0.32c0-0.2-0.1-0.31-0.28-0.31s-0.28,0.11-0.28,0.31v0.32c0,0.2,0.1,0.31,0.28,0.31
			S234.33,428.25,234.33,428.05z"/>
		<path class="st4" d="M235.33,427.1h0.44v0.26h0.02c0.04-0.17,0.22-0.3,0.42-0.3c0.4,0,0.61,0.29,0.61,0.82
			c0,0.54-0.21,0.83-0.61,0.83c-0.2,0-0.38-0.13-0.42-0.3h-0.02v0.87h-0.44V427.1z M236.36,428.03v-0.27c0-0.2-0.12-0.33-0.29-0.33
			s-0.29,0.09-0.29,0.23v0.47c0,0.14,0.12,0.23,0.29,0.23S236.36,428.22,236.36,428.03z"/>
		<path class="st4" d="M237.28,427.89c0-0.5,0.26-0.82,0.74-0.82c0.52,0,0.73,0.38,0.73,0.81V428h-1.01v0.02
			c0,0.21,0.11,0.34,0.35,0.34c0.19,0,0.29-0.09,0.39-0.19l0.22,0.28c-0.14,0.16-0.37,0.26-0.66,0.26
			C237.56,428.71,237.28,428.39,237.28,427.89z M237.74,427.72v0.02h0.55v-0.03c0-0.19-0.09-0.32-0.26-0.32
			C237.85,427.39,237.74,427.52,237.74,427.72z"/>
		<path class="st4" d="M239.29,428.68v-1.58h0.44v0.34h0.02c0.04-0.17,0.16-0.34,0.4-0.34h0.08v0.42h-0.11
			c-0.26,0-0.38,0.06-0.38,0.24v0.92H239.29z"/>
		<path class="st4" d="M241.85,428.68c-0.16,0-0.27-0.11-0.3-0.28h-0.02c-0.05,0.2-0.22,0.31-0.46,0.31c-0.32,0-0.49-0.19-0.49-0.46
			c0-0.33,0.26-0.49,0.68-0.49h0.25v-0.1c0-0.15-0.07-0.25-0.26-0.25c-0.18,0-0.27,0.09-0.34,0.19l-0.26-0.23
			c0.13-0.19,0.31-0.3,0.64-0.3c0.44,0,0.67,0.2,0.67,0.58v0.69h0.15v0.35H241.85z M241.51,428.2v-0.19h-0.22
			c-0.17,0-0.26,0.06-0.26,0.18v0.05c0,0.11,0.07,0.17,0.21,0.17C241.38,428.41,241.51,428.34,241.51,428.2z"/>
		<path class="st4" d="M242.52,427.89c0-0.5,0.26-0.82,0.74-0.82c0.32,0,0.54,0.15,0.63,0.41l-0.36,0.16
			c-0.03-0.12-0.11-0.22-0.27-0.22c-0.18,0-0.27,0.13-0.27,0.33v0.29c0,0.2,0.09,0.33,0.27,0.33c0.18,0,0.25-0.11,0.29-0.24
			l0.35,0.15c-0.1,0.3-0.33,0.44-0.64,0.44C242.78,428.71,242.52,428.39,242.52,427.89z"/>
		<path class="st4" d="M244.28,427.89c0-0.5,0.26-0.82,0.74-0.82c0.52,0,0.73,0.38,0.73,0.81V428h-1.01v0.02
			c0,0.21,0.11,0.34,0.35,0.34c0.19,0,0.29-0.09,0.39-0.19l0.22,0.28c-0.14,0.16-0.37,0.26-0.66,0.26
			C244.55,428.71,244.28,428.39,244.28,427.89z M244.74,427.72v0.02h0.55v-0.03c0-0.19-0.09-0.32-0.26-0.32
			C244.85,427.39,244.74,427.52,244.74,427.72z"/>
	</g>
	<g>
		<path class="st4" d="M276.64,423.7L276.64,423.7l-0.16,0.31l-0.41,0.74l-0.4-0.74l-0.16-0.33h-0.01v1.4h-0.43v-2.1h0.48l0.51,0.98
			h0.01l0.51-0.98h0.49v2.1h-0.43V423.7z"/>
		<path class="st4" d="M278.89,425.08c-0.16,0-0.27-0.11-0.3-0.28h-0.02c-0.05,0.2-0.22,0.31-0.46,0.31c-0.32,0-0.49-0.19-0.49-0.46
			c0-0.33,0.26-0.49,0.68-0.49h0.25v-0.1c0-0.15-0.07-0.25-0.26-0.25c-0.18,0-0.27,0.09-0.34,0.19l-0.26-0.23
			c0.13-0.19,0.31-0.3,0.64-0.3c0.44,0,0.67,0.2,0.67,0.58v0.69h0.15v0.35H278.89z M278.55,424.6v-0.19h-0.22
			c-0.17,0-0.26,0.06-0.26,0.18v0.05c0,0.11,0.08,0.17,0.21,0.17C278.42,424.81,278.55,424.75,278.55,424.6z"/>
		<path class="st4" d="M280.26,425.72c-0.55,0-0.75-0.14-0.75-0.37c0-0.17,0.11-0.28,0.29-0.3v-0.03c-0.15-0.03-0.23-0.14-0.23-0.28
			c0-0.17,0.15-0.25,0.29-0.28v-0.01c-0.19-0.09-0.28-0.25-0.28-0.45c0-0.32,0.22-0.53,0.68-0.53c0.1,0,0.19,0.01,0.27,0.03v-0.06
			c0-0.17,0.09-0.24,0.24-0.24h0.25v0.33h-0.35v0.02c0.18,0.09,0.27,0.25,0.27,0.45c0,0.32-0.22,0.52-0.68,0.52
			c-0.11,0-0.2-0.01-0.28-0.03c-0.04,0.03-0.07,0.07-0.07,0.13c0,0.08,0.05,0.12,0.19,0.12h0.46c0.38,0,0.55,0.17,0.55,0.46
			C281.12,425.53,280.91,425.72,280.26,425.72z M280.46,425.11h-0.54c-0.04,0.04-0.06,0.09-0.06,0.14c0,0.11,0.09,0.17,0.33,0.17
			h0.18c0.24,0,0.33-0.05,0.33-0.17C280.7,425.16,280.63,425.11,280.46,425.11z M280.53,424.01v-0.04c0-0.14-0.09-0.22-0.26-0.22
			s-0.26,0.08-0.26,0.22v0.04c0,0.14,0.09,0.22,0.26,0.22S280.53,424.15,280.53,424.01z"/>
		<path class="st4" d="M281.54,425.08v-1.58h0.44v0.27H282c0.06-0.17,0.19-0.3,0.44-0.3c0.32,0,0.49,0.23,0.49,0.62v0.99h-0.44
			v-0.95c0-0.2-0.06-0.3-0.22-0.3c-0.14,0-0.29,0.08-0.29,0.23v1.02H281.54z"/>
		<path class="st4" d="M283.45,424.29c0-0.5,0.26-0.82,0.74-0.82c0.52,0,0.73,0.38,0.73,0.81v0.13h-1.01v0.02
			c0,0.21,0.11,0.34,0.35,0.34c0.19,0,0.29-0.09,0.39-0.19l0.22,0.28c-0.14,0.16-0.37,0.26-0.66,0.26
			C283.73,425.12,283.45,424.79,283.45,424.29z M283.91,424.12v0.02h0.55v-0.03c0-0.19-0.09-0.32-0.26-0.32
			C284.02,423.79,283.91,423.92,283.91,424.12z"/>
		<path class="st4" d="M286.02,425.08c-0.31,0-0.47-0.16-0.47-0.46v-0.77h-0.22v-0.35h0.11c0.12,0,0.16-0.06,0.16-0.17v-0.26h0.4
			v0.43h0.31v0.35h-0.31v0.89h0.29v0.35H286.02z"/>
		<path class="st4" d="M286.8,423.11v-0.07c0-0.13,0.08-0.22,0.26-0.22c0.18,0,0.26,0.09,0.26,0.22v0.07c0,0.13-0.08,0.22-0.26,0.22
			C286.88,423.33,286.8,423.24,286.8,423.11z M286.84,423.5h0.44v1.58h-0.44V423.5z"/>
		<path class="st4" d="M287.82,424.29c0-0.5,0.26-0.82,0.74-0.82c0.32,0,0.54,0.15,0.63,0.41l-0.36,0.16
			c-0.03-0.12-0.11-0.22-0.27-0.22c-0.18,0-0.27,0.13-0.27,0.33v0.29c0,0.2,0.09,0.33,0.27,0.33c0.18,0,0.25-0.11,0.29-0.24
			l0.35,0.15c-0.1,0.3-0.33,0.44-0.64,0.44C288.08,425.12,287.82,424.79,287.82,424.29z"/>
		<path class="st4" d="M289.7,422.85h0.44v1.31h0.02l0.2-0.29l0.32-0.38h0.49l-0.53,0.6l0.59,0.97h-0.53l-0.35-0.67l-0.2,0.22v0.45
			h-0.44V422.85z"/>
		<path class="st4" d="M291.47,424.29c0-0.5,0.26-0.82,0.74-0.82c0.52,0,0.73,0.38,0.73,0.81v0.13h-1.01v0.02
			c0,0.21,0.11,0.34,0.35,0.34c0.19,0,0.29-0.09,0.39-0.19l0.22,0.28c-0.14,0.16-0.37,0.26-0.66,0.26
			C291.74,425.12,291.47,424.79,291.47,424.29z M291.93,424.12v0.02h0.55v-0.03c0-0.19-0.09-0.32-0.26-0.32
			C292.04,423.79,291.93,423.92,291.93,424.12z M292.27,423.34l-0.26-0.13l0.3-0.58l0.37,0.18L292.27,423.34z"/>
		<path class="st4" d="M280.45,428.43l0.26-0.26c0.11,0.12,0.25,0.2,0.42,0.2c0.17,0,0.23-0.06,0.23-0.15
			c0-0.08-0.05-0.12-0.16-0.13l-0.17-0.02c-0.36-0.04-0.53-0.2-0.53-0.49c0-0.3,0.24-0.51,0.61-0.51c0.33,0,0.48,0.09,0.64,0.25
			l-0.26,0.26c-0.1-0.1-0.23-0.16-0.36-0.16c-0.15,0-0.21,0.05-0.21,0.13c0,0.08,0.04,0.13,0.17,0.15l0.18,0.02
			c0.34,0.04,0.52,0.2,0.52,0.47c0,0.3-0.27,0.53-0.68,0.53C280.81,428.71,280.61,428.61,280.45,428.43z M280.93,426.91l-0.4-0.48
			l0.22-0.17l0.36,0.35l0.36-0.35l0.22,0.17l-0.4,0.48H280.93z"/>
		<path class="st4" d="M282.84,428.68c-0.31,0-0.47-0.16-0.47-0.46v-0.77h-0.22v-0.35h0.11c0.12,0,0.16-0.06,0.16-0.17v-0.26h0.4
			v0.43h0.31v0.35h-0.31v0.89h0.29v0.35H282.84z"/>
		<path class="st4" d="M283.66,428.68v-1.58h0.44v1.58H283.66z M283.93,426.94l-0.26-0.13l0.3-0.58l0.37,0.18L283.93,426.94z"/>
		<path class="st4" d="M285.3,428.68c-0.31,0-0.47-0.16-0.47-0.46v-0.77h-0.22v-0.35h0.11c0.12,0,0.16-0.06,0.16-0.17v-0.26h0.4
			v0.43h0.31v0.35h-0.31v0.89h0.29v0.35H285.3z"/>
		<path class="st4" d="M287.09,427.1h0.42l-0.61,1.82c-0.08,0.24-0.21,0.36-0.48,0.36h-0.28v-0.35h0.3l0.05-0.17l-0.55-1.66h0.44
			l0.23,0.74l0.11,0.46h0.02l0.12-0.46L287.09,427.1z"/>
	</g>
	<g>
		<path class="st4" d="M320.92,425.08v-2.1h0.99c0.39,0,0.64,0.27,0.64,0.67s-0.25,0.67-0.64,0.67h-0.54v0.76H320.92z
			 M321.37,423.92h0.48c0.13,0,0.22-0.07,0.22-0.21v-0.13c0-0.13-0.08-0.21-0.22-0.21h-0.48V423.92z"/>
		<path class="st4" d="M323.05,425.08v-1.58h0.44v0.34h0.02c0.04-0.17,0.16-0.34,0.4-0.34H324v0.42h-0.11
			c-0.26,0-0.38,0.06-0.38,0.24v0.92H323.05z"/>
		<path class="st4" d="M324.38,424.29c0-0.51,0.28-0.82,0.74-0.82s0.74,0.32,0.74,0.82c0,0.51-0.28,0.83-0.74,0.83
			S324.38,424.8,324.38,424.29z M325.39,424.45v-0.32c0-0.2-0.1-0.31-0.28-0.31c-0.17,0-0.28,0.11-0.28,0.31v0.32
			c0,0.2,0.1,0.31,0.28,0.31C325.29,424.76,325.39,424.65,325.39,424.45z"/>
		<path class="st4" d="M326.39,423.5h0.44v0.26h0.02c0.04-0.17,0.22-0.3,0.42-0.3c0.4,0,0.61,0.29,0.61,0.82
			c0,0.54-0.21,0.83-0.61,0.83c-0.21,0-0.38-0.13-0.42-0.3h-0.02v0.87h-0.44V423.5z M327.42,424.43v-0.27c0-0.2-0.12-0.33-0.29-0.33
			c-0.17,0-0.29,0.09-0.29,0.23v0.47c0,0.14,0.12,0.23,0.29,0.23C327.3,424.75,327.42,424.62,327.42,424.43z"/>
		<path class="st4" d="M328.34,424.29c0-0.51,0.28-0.82,0.74-0.82s0.74,0.32,0.74,0.82c0,0.51-0.28,0.83-0.74,0.83
			S328.34,424.8,328.34,424.29z M329.36,424.45v-0.32c0-0.2-0.1-0.31-0.28-0.31c-0.17,0-0.28,0.11-0.28,0.31v0.32
			c0,0.2,0.1,0.31,0.28,0.31C329.26,424.76,329.36,424.65,329.36,424.45z"/>
		<path class="st4" d="M330.36,423.5h0.44v1.75c0,0.28-0.13,0.43-0.44,0.43h-0.23v-0.35h0.23V423.5z M330.32,423.11v-0.07
			c0-0.13,0.08-0.22,0.26-0.22c0.18,0,0.26,0.09,0.26,0.22v0.07c0,0.13-0.08,0.22-0.26,0.22
			C330.4,423.33,330.32,423.24,330.32,423.11z"/>
		<path class="st4" d="M331.34,424.29c0-0.5,0.26-0.82,0.74-0.82c0.52,0,0.73,0.38,0.73,0.81v0.13h-1.01v0.02
			c0,0.21,0.11,0.34,0.35,0.34c0.19,0,0.29-0.09,0.39-0.19l0.22,0.28c-0.14,0.16-0.37,0.26-0.66,0.26
			C331.62,425.11,331.34,424.79,331.34,424.29z M331.8,424.12v0.02h0.55v-0.03c0-0.19-0.09-0.32-0.26-0.32
			C331.91,423.79,331.8,423.92,331.8,424.12z"/>
		<path class="st4" d="M333.35,425.08v-1.58h0.44v0.27h0.02c0.06-0.17,0.19-0.3,0.44-0.3c0.32,0,0.49,0.23,0.49,0.62v0.99h-0.45
			v-0.95c0-0.2-0.06-0.3-0.22-0.3c-0.14,0-0.29,0.08-0.29,0.23v1.02H333.35z"/>
		<path class="st4" d="M335.37,425.08v-1.58h0.45v1.58H335.37z M335.64,423.34l-0.26-0.13l0.3-0.58l0.37,0.18L335.64,423.34z"/>
		<path class="st4" d="M324.35,428.41h-0.01c-0.04,0.17-0.22,0.3-0.42,0.3c-0.4,0-0.61-0.29-0.61-0.83c0-0.53,0.21-0.82,0.61-0.82
			c0.2,0,0.38,0.13,0.42,0.3h0.01v-0.26h0.45v2.18h-0.45V428.41z M324.35,428.12v-0.47c0-0.14-0.12-0.23-0.29-0.23
			c-0.17,0-0.29,0.13-0.29,0.33v0.27c0,0.2,0.12,0.33,0.29,0.33C324.22,428.35,324.35,428.27,324.35,428.12z"/>
		<path class="st4" d="M326.36,428.41h-0.01c-0.05,0.16-0.18,0.3-0.44,0.3c-0.32,0-0.49-0.23-0.49-0.62v-0.99h0.44v0.95
			c0,0.19,0.06,0.3,0.23,0.3c0.14,0,0.28-0.08,0.28-0.23v-1.03h0.45v1.58h-0.45V428.41z"/>
		<path class="st4" d="M327.44,426.45h0.44v0.91h0.02c0.04-0.17,0.22-0.3,0.42-0.3c0.4,0,0.61,0.29,0.61,0.82
			c0,0.54-0.21,0.83-0.61,0.83c-0.21,0-0.38-0.13-0.42-0.3h-0.02v0.26h-0.44V426.45z M328.47,428.03v-0.27
			c0-0.2-0.12-0.33-0.29-0.33c-0.17,0-0.29,0.09-0.29,0.23v0.47c0,0.14,0.12,0.23,0.29,0.23
			C328.35,428.35,328.47,428.22,328.47,428.03z"/>
		<path class="st4" d="M329.46,426.71v-0.07c0-0.13,0.08-0.22,0.26-0.22c0.18,0,0.26,0.09,0.26,0.22v0.07
			c0,0.13-0.08,0.22-0.26,0.22C329.53,426.93,329.46,426.84,329.46,426.71z M329.49,427.1h0.44v1.58h-0.44V427.1z"/>
		<path class="st4" d="M331.13,428.68c-0.31,0-0.47-0.16-0.47-0.46v-0.77h-0.22v-0.35h0.11c0.12,0,0.16-0.06,0.16-0.17v-0.26h0.4
			v0.43h0.31v0.35h-0.31v0.89h0.29v0.35H331.13z"/>
		<path class="st4" d="M332.88,428.41h-0.02c-0.05,0.16-0.18,0.3-0.44,0.3c-0.32,0-0.49-0.23-0.49-0.62v-0.99h0.45v0.95
			c0,0.19,0.06,0.3,0.23,0.3c0.14,0,0.28-0.08,0.28-0.23v-1.03h0.44v1.58h-0.44V428.41z M332.18,426.57c0-0.25,0.2-0.43,0.44-0.43
			c0.25,0,0.45,0.18,0.45,0.43c0,0.25-0.2,0.43-0.45,0.43C332.38,427,332.18,426.82,332.18,426.57z M332.78,426.62v-0.1
			c0-0.1-0.05-0.15-0.15-0.15c-0.1,0-0.15,0.06-0.15,0.15v0.1c0,0.1,0.05,0.15,0.15,0.15C332.73,426.78,332.78,426.72,332.78,426.62
			z"/>
	</g>
	<g>
		<path class="st4" d="M366.34,424.17l-0.27,0.33v0.58h-0.46v-2.1h0.46v1h0.02l0.3-0.41l0.47-0.59h0.52l-0.71,0.86l0.77,1.24h-0.54
			L366.34,424.17z"/>
		<path class="st4" d="M368.17,425.08l-0.52-1.58h0.44l0.2,0.64l0.15,0.57h0.02l0.15-0.57l0.19-0.64h0.42l-0.52,1.58H368.17z"/>
		<path class="st4" d="M370.81,425.08c-0.16,0-0.27-0.11-0.3-0.28h-0.02c-0.05,0.2-0.22,0.31-0.46,0.31c-0.32,0-0.49-0.19-0.49-0.46
			c0-0.33,0.26-0.49,0.68-0.49h0.25v-0.1c0-0.15-0.08-0.25-0.26-0.25c-0.18,0-0.27,0.09-0.34,0.19l-0.26-0.23
			c0.13-0.19,0.31-0.3,0.64-0.3c0.45,0,0.67,0.2,0.67,0.58v0.69h0.15v0.35H370.81z M370.47,424.6v-0.19h-0.22
			c-0.17,0-0.26,0.06-0.26,0.18v0.05c0,0.11,0.08,0.17,0.21,0.17C370.35,424.81,370.47,424.75,370.47,424.6z"/>
		<path class="st4" d="M371.58,425.08v-1.58h0.45v0.27h0.02c0.06-0.17,0.19-0.3,0.44-0.3c0.32,0,0.49,0.23,0.49,0.62v0.99h-0.44
			v-0.95c0-0.2-0.06-0.3-0.22-0.3c-0.14,0-0.29,0.08-0.29,0.23v1.02H371.58z"/>
		<path class="st4" d="M374.15,425.08c-0.31,0-0.47-0.16-0.47-0.46v-0.77h-0.22v-0.35h0.11c0.12,0,0.16-0.06,0.16-0.17v-0.26h0.4
			v0.43h0.31v0.35h-0.31v0.89h0.29v0.35H374.15z"/>
		<path class="st4" d="M374.86,424.29c0-0.51,0.28-0.82,0.74-0.82s0.74,0.32,0.74,0.82c0,0.51-0.28,0.83-0.74,0.83
			S374.86,424.8,374.86,424.29z M375.87,424.45v-0.32c0-0.2-0.1-0.31-0.28-0.31c-0.17,0-0.28,0.11-0.28,0.31v0.32
			c0,0.2,0.1,0.31,0.28,0.31C375.77,424.76,375.87,424.65,375.87,424.45z"/>
		<path class="st4" d="M377.18,425.08l-0.52-1.58h0.44l0.2,0.64l0.15,0.57h0.02l0.15-0.57l0.19-0.64h0.42l-0.52,1.58H377.18z"/>
		<path class="st4" d="M378.56,424.29c0-0.5,0.26-0.82,0.74-0.82c0.52,0,0.73,0.38,0.73,0.81v0.13h-1.01v0.02
			c0,0.21,0.11,0.34,0.35,0.34c0.19,0,0.29-0.09,0.39-0.19l0.22,0.28c-0.14,0.16-0.37,0.26-0.66,0.26
			C378.84,425.12,378.56,424.79,378.56,424.29z M379.02,424.12v0.02h0.55v-0.03c0-0.19-0.09-0.32-0.26-0.32
			S379.02,423.92,379.02,424.12z M379.37,423.34l-0.26-0.13l0.3-0.58l0.37,0.18L379.37,423.34z"/>
		<path class="st4" d="M361.96,427.1h0.44v0.26h0.02c0.04-0.17,0.22-0.3,0.42-0.3c0.4,0,0.61,0.29,0.61,0.82
			c0,0.54-0.21,0.83-0.61,0.83c-0.21,0-0.38-0.13-0.42-0.3h-0.02v0.87h-0.44V427.1z M362.99,428.03v-0.27c0-0.2-0.12-0.33-0.29-0.33
			c-0.17,0-0.29,0.09-0.29,0.23v0.47c0,0.14,0.12,0.23,0.29,0.23C362.87,428.35,362.99,428.22,362.99,428.03z"/>
		<path class="st4" d="M364.01,428.68v-1.58h0.44v0.34h0.02c0.04-0.17,0.16-0.34,0.4-0.34h0.08v0.42h-0.11
			c-0.26,0-0.38,0.06-0.38,0.24v0.92H364.01z"/>
		<path class="st4" d="M365.33,427.89c0-0.51,0.28-0.82,0.74-0.82s0.74,0.32,0.74,0.82c0,0.51-0.28,0.83-0.74,0.83
			S365.33,428.4,365.33,427.89z M366.35,428.05v-0.32c0-0.2-0.1-0.31-0.28-0.31c-0.17,0-0.28,0.11-0.28,0.31v0.32
			c0,0.2,0.1,0.31,0.28,0.31C366.25,428.36,366.35,428.25,366.35,428.05z"/>
		<path class="st4" d="M367.96,429.32c-0.55,0-0.75-0.14-0.75-0.37c0-0.17,0.11-0.28,0.29-0.3v-0.03c-0.15-0.03-0.23-0.14-0.23-0.28
			c0-0.17,0.15-0.25,0.29-0.28v-0.01c-0.19-0.09-0.28-0.25-0.28-0.45c0-0.32,0.22-0.53,0.68-0.53c0.1,0,0.19,0.01,0.27,0.03v-0.06
			c0-0.17,0.09-0.24,0.24-0.24h0.25v0.33h-0.35v0.02c0.18,0.09,0.27,0.25,0.27,0.45c0,0.32-0.22,0.52-0.68,0.52
			c-0.11,0-0.2-0.01-0.28-0.03c-0.04,0.03-0.07,0.07-0.07,0.13c0,0.08,0.05,0.12,0.19,0.12h0.46c0.38,0,0.55,0.17,0.55,0.46
			C368.81,429.13,368.6,429.32,367.96,429.32z M368.15,428.71h-0.54c-0.04,0.04-0.06,0.09-0.06,0.14c0,0.11,0.09,0.17,0.33,0.17
			h0.18c0.24,0,0.33-0.05,0.33-0.17C368.39,428.76,368.33,428.71,368.15,428.71z M368.22,427.61v-0.04c0-0.14-0.09-0.22-0.26-0.22
			c-0.17,0-0.26,0.08-0.26,0.22v0.04c0,0.14,0.09,0.22,0.26,0.22C368.14,427.83,368.22,427.75,368.22,427.61z"/>
		<path class="st4" d="M369.23,428.68v-1.58h0.45v0.34h0.01c0.04-0.17,0.16-0.34,0.4-0.34h0.08v0.42h-0.11
			c-0.26,0-0.38,0.06-0.38,0.24v0.92H369.23z"/>
		<path class="st4" d="M371.79,428.68c-0.16,0-0.27-0.11-0.3-0.28h-0.02c-0.05,0.2-0.22,0.31-0.46,0.31c-0.32,0-0.49-0.19-0.49-0.46
			c0-0.33,0.26-0.49,0.68-0.49h0.25v-0.1c0-0.15-0.08-0.25-0.26-0.25c-0.18,0-0.27,0.09-0.34,0.19l-0.26-0.23
			c0.13-0.19,0.31-0.3,0.64-0.3c0.45,0,0.67,0.2,0.67,0.58v0.69h0.15v0.35H371.79z M371.45,428.2v-0.19h-0.22
			c-0.17,0-0.26,0.06-0.26,0.18v0.05c0,0.11,0.08,0.17,0.21,0.17C371.32,428.41,371.45,428.34,371.45,428.2z"/>
		<path class="st4" d="M372.56,428.68v-1.58H373v0.27h0.02c0.06-0.17,0.19-0.3,0.42-0.3c0.22,0,0.37,0.11,0.44,0.32h0.01
			c0.06-0.18,0.24-0.32,0.48-0.32c0.3,0,0.47,0.23,0.47,0.62v0.99h-0.44v-0.95c0-0.2-0.07-0.3-0.22-0.3c-0.13,0-0.26,0.08-0.26,0.23
			v1.02h-0.44v-0.95c0-0.2-0.07-0.3-0.22-0.3c-0.13,0-0.26,0.08-0.26,0.23v1.02H372.56z"/>
		<path class="st4" d="M375.36,427.89c0-0.51,0.28-0.82,0.74-0.82s0.74,0.32,0.74,0.82c0,0.51-0.28,0.83-0.74,0.83
			S375.36,428.4,375.36,427.89z M376.38,428.05v-0.32c0-0.2-0.1-0.31-0.28-0.31c-0.17,0-0.28,0.11-0.28,0.31v0.32
			c0,0.2,0.1,0.31,0.28,0.31C376.28,428.36,376.38,428.25,376.38,428.05z"/>
		<path class="st4" d="M377.69,428.68l-0.52-1.58h0.44l0.2,0.64l0.15,0.57h0.02l0.15-0.57l0.19-0.64h0.42l-0.52,1.58H377.69z"/>
		<path class="st4" d="M380.33,428.68c-0.16,0-0.27-0.11-0.3-0.28h-0.02c-0.05,0.2-0.22,0.31-0.46,0.31c-0.32,0-0.49-0.19-0.49-0.46
			c0-0.33,0.26-0.49,0.68-0.49h0.25v-0.1c0-0.15-0.08-0.25-0.26-0.25c-0.18,0-0.27,0.09-0.34,0.19l-0.26-0.23
			c0.13-0.19,0.31-0.3,0.64-0.3c0.45,0,0.67,0.2,0.67,0.58v0.69h0.15v0.35H380.33z M379.99,428.2v-0.19h-0.22
			c-0.17,0-0.26,0.06-0.26,0.18v0.05c0,0.11,0.08,0.17,0.21,0.17C379.87,428.41,379.99,428.34,379.99,428.2z M379.81,426.94
			l-0.26-0.13l0.3-0.58l0.37,0.18L379.81,426.94z"/>
		<path class="st4" d="M381.1,428.68v-1.58h0.44v0.27h0.02c0.06-0.17,0.19-0.3,0.44-0.3c0.32,0,0.49,0.23,0.49,0.62v0.99h-0.45
			v-0.95c0-0.2-0.06-0.3-0.22-0.3c-0.14,0-0.29,0.08-0.29,0.23v1.02H381.1z"/>
		<path class="st4" d="M383.11,428.68v-1.58h0.45v1.58H383.11z M383.38,426.94l-0.26-0.13l0.3-0.58l0.37,0.18L383.38,426.94z"/>
	</g>
	<g>
		<path class="st4" d="M410.82,424.04c0-0.71,0.36-1.1,0.93-1.1c0.38,0,0.63,0.16,0.78,0.49l-0.39,0.21
			c-0.05-0.17-0.17-0.29-0.39-0.29c-0.27,0-0.45,0.18-0.45,0.51v0.34c0,0.33,0.18,0.51,0.45,0.51c0.23,0,0.35-0.14,0.42-0.31
			l0.37,0.22c-0.16,0.32-0.41,0.5-0.79,0.5C411.18,425.12,410.82,424.75,410.82,424.04z"/>
		<path class="st4" d="M413.05,422.85h0.45v0.91h0.02c0.06-0.17,0.19-0.3,0.44-0.3c0.32,0,0.49,0.23,0.49,0.62v0.99H414v-0.95
			c0-0.2-0.06-0.3-0.22-0.3c-0.14,0-0.29,0.08-0.29,0.23v1.02h-0.45V422.85z"/>
		<path class="st4" d="M415.51,425.08c-0.3,0-0.44-0.15-0.44-0.43v-1.79h0.44v1.88h0.2v0.35H415.51z"/>
		<path class="st4" d="M417.37,425.08c-0.16,0-0.27-0.11-0.3-0.28h-0.02c-0.05,0.2-0.22,0.31-0.46,0.31c-0.32,0-0.49-0.19-0.49-0.46
			c0-0.33,0.26-0.49,0.68-0.49h0.25v-0.1c0-0.15-0.08-0.25-0.26-0.25c-0.18,0-0.27,0.09-0.34,0.19l-0.26-0.23
			c0.13-0.19,0.31-0.3,0.64-0.3c0.45,0,0.67,0.2,0.67,0.58v0.69h0.15v0.35H417.37z M417.02,424.6v-0.19h-0.22
			c-0.17,0-0.26,0.06-0.26,0.18v0.05c0,0.11,0.07,0.17,0.21,0.17C416.9,424.81,417.02,424.75,417.02,424.6z"/>
		<path class="st4" d="M419.1,424.81h-0.01c-0.04,0.17-0.22,0.3-0.42,0.3c-0.4,0-0.61-0.29-0.61-0.83c0-0.53,0.21-0.82,0.61-0.82
			c0.2,0,0.38,0.13,0.42,0.3h0.01v-0.91h0.45v2.22h-0.45V424.81z M419.1,424.52v-0.47c0-0.14-0.12-0.23-0.29-0.23
			c-0.17,0-0.29,0.13-0.29,0.33v0.27c0,0.2,0.12,0.33,0.29,0.33C418.98,424.75,419.1,424.67,419.1,424.52z"/>
		<path class="st4" d="M420.18,425.08v-1.58h0.45v1.58H420.18z M420.45,423.34l-0.26-0.13l0.3-0.58l0.37,0.18L420.45,423.34z"/>
		<path class="st4" d="M421.17,424.29c0-0.5,0.26-0.82,0.74-0.82c0.32,0,0.54,0.15,0.63,0.41l-0.36,0.16
			c-0.03-0.12-0.11-0.22-0.27-0.22c-0.18,0-0.27,0.13-0.27,0.33v0.29c0,0.2,0.09,0.33,0.27,0.33c0.18,0,0.25-0.11,0.29-0.24
			l0.35,0.15c-0.1,0.3-0.33,0.44-0.64,0.44C421.43,425.12,421.17,424.79,421.17,424.29z"/>
		<path class="st4" d="M423.04,425.08v-1.58h0.45v1.58H423.04z M423.31,423.34l-0.26-0.13l0.3-0.58l0.37,0.18L423.31,423.34z"/>
		<path class="st4" d="M410.39,427.1h0.44v1.75c0,0.28-0.13,0.43-0.44,0.43h-0.23v-0.35h0.23V427.1z M410.36,426.71v-0.07
			c0-0.13,0.08-0.22,0.26-0.22c0.18,0,0.26,0.09,0.26,0.22v0.07c0,0.13-0.08,0.22-0.26,0.22
			C410.43,426.93,410.36,426.84,410.36,426.71z"/>
		<path class="st4" d="M411.38,427.89c0-0.5,0.26-0.82,0.74-0.82c0.52,0,0.73,0.38,0.73,0.81V428h-1.01v0.02
			c0,0.21,0.11,0.34,0.35,0.34c0.19,0,0.29-0.09,0.39-0.19l0.22,0.28c-0.14,0.16-0.37,0.26-0.66,0.26
			C411.65,428.71,411.38,428.39,411.38,427.89z M411.84,427.72v0.02h0.55v-0.03c0-0.19-0.09-0.32-0.26-0.32
			C411.95,427.39,411.84,427.52,411.84,427.72z"/>
		<path class="st4" d="M414.35,428.41h-0.02c-0.04,0.17-0.22,0.3-0.42,0.3c-0.4,0-0.61-0.29-0.61-0.83c0-0.53,0.21-0.82,0.61-0.82
			c0.21,0,0.38,0.13,0.42,0.3h0.02v-0.91h0.44v2.22h-0.44V428.41z M414.35,428.12v-0.47c0-0.14-0.12-0.23-0.29-0.23
			c-0.17,0-0.29,0.13-0.29,0.33v0.27c0,0.2,0.12,0.33,0.29,0.33C414.23,428.35,414.35,428.27,414.35,428.12z"/>
		<path class="st4" d="M415.44,428.68v-1.58h0.44v0.27h0.02c0.06-0.17,0.19-0.3,0.44-0.3c0.32,0,0.49,0.23,0.49,0.62v0.99h-0.45
			v-0.95c0-0.2-0.06-0.3-0.22-0.3c-0.14,0-0.29,0.08-0.29,0.23v1.02H415.44z"/>
		<path class="st4" d="M417.35,427.89c0-0.51,0.28-0.82,0.74-0.82s0.74,0.32,0.74,0.82c0,0.51-0.28,0.83-0.74,0.83
			S417.35,428.4,417.35,427.89z M418.37,428.05v-0.32c0-0.2-0.1-0.31-0.28-0.31c-0.17,0-0.28,0.11-0.28,0.31v0.32
			c0,0.2,0.1,0.31,0.28,0.31C418.26,428.36,418.37,428.25,418.37,428.05z"/>
		<path class="st4" d="M419.9,428.68c-0.31,0-0.47-0.16-0.47-0.46v-0.77h-0.22v-0.35h0.11c0.12,0,0.16-0.06,0.16-0.17v-0.26h0.4
			v0.43h0.31v0.35h-0.31v0.89h0.29v0.35H419.9z"/>
		<path class="st4" d="M420.72,426.45h0.44v1.31h0.02l0.2-0.29l0.32-0.38h0.49l-0.53,0.6l0.59,0.97h-0.53l-0.36-0.67l-0.2,0.22v0.45
			h-0.44V426.45z"/>
		<path class="st4" d="M423.84,428.68c-0.16,0-0.27-0.11-0.3-0.28h-0.02c-0.05,0.2-0.22,0.31-0.46,0.31c-0.32,0-0.49-0.19-0.49-0.46
			c0-0.33,0.26-0.49,0.68-0.49h0.25v-0.1c0-0.15-0.07-0.25-0.26-0.25c-0.18,0-0.27,0.09-0.34,0.19l-0.26-0.23
			c0.13-0.19,0.31-0.3,0.64-0.3c0.44,0,0.67,0.2,0.67,0.58v0.69h0.15v0.35H423.84z M423.5,428.2v-0.19h-0.22
			c-0.17,0-0.26,0.06-0.26,0.18v0.05c0,0.11,0.08,0.17,0.21,0.17C423.37,428.41,423.5,428.34,423.5,428.2z"/>
	</g>
	<g>
		<path class="st4" d="M455.45,424.17l-0.27,0.33v0.58h-0.46v-2.1h0.46v1h0.02l0.3-0.41l0.47-0.59h0.52l-0.71,0.86l0.77,1.24H456
			L455.45,424.17z"/>
		<path class="st4" d="M456.83,424.29c0-0.51,0.28-0.82,0.74-0.82s0.74,0.32,0.74,0.82c0,0.51-0.28,0.83-0.74,0.83
			S456.83,424.8,456.83,424.29z M457.85,424.45v-0.32c0-0.2-0.1-0.31-0.28-0.31c-0.17,0-0.28,0.11-0.28,0.31v0.32
			c0,0.2,0.1,0.31,0.28,0.31C457.75,424.76,457.85,424.65,457.85,424.45z"/>
		<path class="st4" d="M458.85,425.08v-1.58h0.45v0.27h0.02c0.06-0.17,0.19-0.3,0.44-0.3c0.32,0,0.49,0.23,0.49,0.62v0.99h-0.45
			v-0.95c0-0.2-0.06-0.3-0.22-0.3c-0.14,0-0.29,0.08-0.29,0.23v1.02H458.85z"/>
		<path class="st4" d="M461.41,425.08c-0.31,0-0.47-0.16-0.47-0.46v-0.77h-0.22v-0.35h0.11c0.12,0,0.16-0.06,0.16-0.17v-0.26h0.4
			v0.43h0.31v0.35h-0.31v0.89h0.29v0.35H461.41z"/>
		<path class="st4" d="M462.23,425.08v-1.58h0.45v0.34h0.02c0.04-0.17,0.16-0.34,0.4-0.34h0.08v0.42h-0.11
			c-0.26,0-0.38,0.06-0.38,0.24v0.92H462.23z"/>
		<path class="st4" d="M463.56,424.29c0-0.51,0.28-0.82,0.74-0.82s0.74,0.32,0.74,0.82c0,0.51-0.28,0.83-0.74,0.83
			S463.56,424.8,463.56,424.29z M464.57,424.45v-0.32c0-0.2-0.1-0.31-0.28-0.31s-0.28,0.11-0.28,0.31v0.32c0,0.2,0.1,0.31,0.28,0.31
			S464.57,424.65,464.57,424.45z"/>
		<path class="st4" d="M466.02,425.08c-0.3,0-0.44-0.15-0.44-0.43v-1.79h0.44v1.88h0.2v0.35H466.02z"/>
		<path class="st4" d="M466.71,425.08v-1.58h0.44v0.27h0.02c0.06-0.17,0.19-0.3,0.44-0.3c0.32,0,0.49,0.23,0.49,0.62v0.99h-0.44
			v-0.95c0-0.2-0.06-0.3-0.22-0.3c-0.14,0-0.29,0.08-0.29,0.23v1.02H466.71z"/>
		<path class="st4" d="M468.72,425.08v-1.58h0.45v1.58H468.72z M468.99,423.34l-0.26-0.13l0.3-0.58l0.37,0.18L468.99,423.34z"/>
		<path class="st4" d="M455.52,428.43l0.26-0.26c0.11,0.12,0.25,0.2,0.42,0.2c0.17,0,0.23-0.06,0.23-0.15
			c0-0.08-0.05-0.12-0.16-0.13l-0.17-0.02c-0.36-0.04-0.53-0.2-0.53-0.49c0-0.3,0.24-0.51,0.61-0.51c0.33,0,0.48,0.09,0.64,0.25
			l-0.25,0.26c-0.1-0.1-0.23-0.16-0.36-0.16c-0.15,0-0.21,0.05-0.21,0.13c0,0.08,0.04,0.13,0.16,0.15l0.18,0.02
			c0.34,0.04,0.52,0.2,0.52,0.47c0,0.3-0.27,0.53-0.68,0.53C455.88,428.71,455.68,428.61,455.52,428.43z"/>
		<path class="st4" d="M458.32,427.1h0.41l-0.61,1.82c-0.08,0.24-0.21,0.36-0.48,0.36h-0.28v-0.35h0.3l0.05-0.17l-0.55-1.66h0.44
			l0.23,0.74l0.11,0.46h0.02l0.12-0.46L458.32,427.1z"/>
		<path class="st4" d="M459.03,428.43l0.26-0.26c0.11,0.12,0.25,0.2,0.42,0.2c0.17,0,0.23-0.06,0.23-0.15
			c0-0.08-0.05-0.12-0.16-0.13l-0.17-0.02c-0.36-0.04-0.53-0.2-0.53-0.49c0-0.3,0.24-0.51,0.61-0.51c0.33,0,0.48,0.09,0.64,0.25
			l-0.26,0.26c-0.1-0.1-0.23-0.16-0.36-0.16c-0.15,0-0.21,0.05-0.21,0.13c0,0.08,0.04,0.13,0.17,0.15l0.18,0.02
			c0.34,0.04,0.52,0.2,0.52,0.47c0,0.3-0.27,0.53-0.68,0.53C459.39,428.71,459.19,428.61,459.03,428.43z"/>
		<path class="st4" d="M461.42,428.68c-0.31,0-0.47-0.16-0.47-0.46v-0.77h-0.22v-0.35h0.11c0.12,0,0.16-0.06,0.16-0.17v-0.26h0.4
			v0.43h0.31v0.35h-0.31v0.89h0.29v0.35H461.42z"/>
		<path class="st4" d="M462.13,427.89c0-0.5,0.26-0.82,0.74-0.82c0.52,0,0.73,0.38,0.73,0.81V428h-1.01v0.02
			c0,0.21,0.11,0.34,0.35,0.34c0.19,0,0.29-0.09,0.39-0.19l0.22,0.28c-0.14,0.16-0.37,0.26-0.66,0.26
			C462.4,428.71,462.13,428.39,462.13,427.89z M462.59,427.72v0.02h0.55v-0.03c0-0.19-0.09-0.32-0.26-0.32
			S462.59,427.52,462.59,427.72z M462.93,426.94l-0.26-0.13l0.3-0.58l0.37,0.18L462.93,426.94z"/>
		<path class="st4" d="M464.14,428.68v-1.58h0.45v0.27h0.02c0.06-0.17,0.19-0.3,0.42-0.3c0.22,0,0.37,0.11,0.44,0.32h0.01
			c0.06-0.18,0.24-0.32,0.48-0.32c0.3,0,0.47,0.23,0.47,0.62v0.99h-0.45v-0.95c0-0.2-0.07-0.3-0.22-0.3c-0.13,0-0.26,0.08-0.26,0.23
			v1.02h-0.44v-0.95c0-0.2-0.07-0.3-0.22-0.3c-0.13,0-0.26,0.08-0.26,0.23v1.02H464.14z"/>
		<path class="st4" d="M467.99,427.1h0.42l-0.61,1.82c-0.08,0.24-0.21,0.36-0.48,0.36h-0.28v-0.35h0.3l0.05-0.17l-0.55-1.66h0.44
			l0.23,0.74l0.11,0.46h0.02l0.12-0.46L467.99,427.1z"/>
	</g>
</g>
</svg>
